<svg width="100" height="28" viewBox="0 0 100 28" fill="none" xmlns="http://www.w3.org/2000/svg">
<path d="M37.4212 14.7873H27.5193V0.500488H23.082V15.9362C23.082 17.7075 24.5441 19.1426 26.3488 19.1426H37.4212V23.1452H41.8585V0.500488H37.4212V14.7873Z" fill="#8C6BFA"/>
<path d="M23.082 27.5005H32.984C35.434 27.5005 37.4212 25.55 37.4212 23.1452H23.082V27.5005Z" fill="#8C6BFA"/>
<path d="M46.4086 5.40068V21.1836H50.8459V4.85581H58.1604V21.1836H62.5976V4.85581H69.803V21.1836H74.2402V0.500488H51.4029C48.6461 0.500488 46.4105 2.69477 46.4105 5.40068" fill="#8C6BFA"/>
<path d="M98.0542 2.41217V0.500488H83.2258C80.7757 0.500488 78.7885 2.45096 78.7885 4.85581V16.965H83.2258V4.85581H95.5627V16.965H83.2258V21.3203H95.5627C98.0128 21.3203 100 19.3698 100 16.965V2.41217H98.0524H98.0542Z" fill="#8C6BFA"/>
<path d="M15.3874 8.93406H4.43914V13.2894H13.9196V16.8283H0.683091V21.1836H15.3874C17.1243 21.1836 18.5318 19.802 18.5318 18.0972V12.0242C18.5318 10.3193 17.1243 8.93776 15.3874 8.93776" fill="#8C6BFA"/>
<path d="M4.43726 4.85581H17.845V0.500488H4.43726C1.98717 0.500488 0 2.45096 0 4.85581V8.93591H4.43726V4.85581Z" fill="#8C6BFA"/>
</svg>
