<svg width="106" height="29" viewBox="0 0 106 29" fill="none" xmlns="http://www.w3.org/2000/svg">
<path d="M39.6665 15.3451H29.1704V0H24.4669V16.5791C24.4669 18.4816 26.0168 20.0231 27.9297 20.0231H39.6665V24.3221H44.37V0H39.6665V15.3451Z" fill="#8C6BFA"/>
<path d="M24.4669 29H34.963C37.5601 29 39.6665 26.9051 39.6665 24.3221H24.4669V29Z" fill="#8C6BFA"/>
<path d="M49.1931 5.26317V22.2152H53.8966V4.67793H61.65V22.2152H66.3535V4.67793H73.9912V22.2152H78.6947V0H54.4871C51.5648 0 49.1951 2.35682 49.1951 5.26317" fill="#8C6BFA"/>
<path d="M103.938 2.05329V0H88.2193C85.6222 0 83.5158 2.09495 83.5158 4.67793V17.6841H88.2193V4.67793H101.297V17.6841H88.2193V22.362H101.297C103.894 22.362 106 20.2671 106 17.6841V2.05329H103.936H103.938Z" fill="#8C6BFA"/>
<path d="M16.3106 9.05829H4.70549V13.7362H14.7548V17.5373H0.724077V22.2152H16.3106C18.1517 22.2152 19.6438 20.7313 19.6438 18.9002V12.3773C19.6438 10.5462 18.1517 9.06225 16.3106 9.06225" fill="#8C6BFA"/>
<path d="M4.70349 4.67794H18.9157V0H4.70349C2.1064 0 0 2.09495 0 4.67794V9.06027H4.70349V4.67794Z" fill="#8C6BFA"/>
</svg>
