<svg width="27" height="27" viewBox="0 0 27 27" fill="none" xmlns="http://www.w3.org/2000/svg">
<path d="M25.7345 7.39501C27.1222 10.2973 27.3856 13.6107 26.474 16.6957C25.5623 19.7808 23.5403 22.4188 20.798 24.1006C18.0557 25.7825 14.7876 26.3889 11.6245 25.8029C8.46141 25.2169 5.62749 23.4799 3.6697 20.9274C1.71191 18.3748 0.769047 15.1874 1.02308 11.9805C1.27711 8.77366 2.71003 5.77454 5.04529 3.56201C7.38054 1.34949 10.4526 0.0804062 13.6685 -0.000295599C16.8844 -0.0809974 20.0163 1.0324 22.4595 3.12501L25.2933 0.290009C25.4809 0.102369 25.7354 -0.00304671 26.0008 -0.00304671C26.2662 -0.00304671 26.5207 0.102369 26.7083 0.290009C26.8959 0.47765 27.0014 0.732145 27.0014 0.997509C27.0014 1.26287 26.8959 1.51737 26.7083 1.70501L14.7083 13.705C14.5207 13.8927 14.2662 13.9981 14.0008 13.9981C13.7354 13.9981 13.4809 13.8927 13.2933 13.705C13.1057 13.5174 13.0002 13.2629 13.0002 12.9975C13.0002 12.7321 13.1057 12.4776 13.2933 12.29L16.7583 8.82501C15.8192 8.20395 14.6981 7.918 13.5763 8.01344C12.4545 8.10888 11.3977 8.58014 10.5771 9.35091C9.75642 10.1217 9.21993 11.1469 9.05444 12.2605C8.88895 13.3741 9.10415 14.511 9.66519 15.4871C10.2262 16.4632 11.1003 17.2214 12.1459 17.6389C13.1914 18.0564 14.3473 18.1089 15.4264 17.7877C16.5055 17.4666 17.4446 16.7906 18.0917 15.8693C18.7388 14.948 19.056 13.8353 18.992 12.7113C18.9847 12.5799 19.0032 12.4484 19.0466 12.3243C19.0901 12.2001 19.1575 12.0858 19.2452 11.9877C19.3328 11.8896 19.4389 11.8097 19.5574 11.7527C19.6759 11.6956 19.8045 11.6624 19.9358 11.655C20.201 11.6401 20.4613 11.7311 20.6594 11.9081C20.7575 11.9958 20.8373 12.1019 20.8944 12.2204C20.9515 12.3389 20.9847 12.4674 20.992 12.5988C21.0832 14.1897 20.6288 15.7642 19.7039 17.0619C18.779 18.3596 17.439 19.3029 15.9054 19.7359C14.3717 20.1689 12.7363 20.0656 11.2693 19.4431C9.8023 18.8207 8.59161 17.7163 7.83732 16.3125C7.08302 14.9088 6.83029 13.2897 7.12087 11.7228C7.41146 10.1559 8.22797 8.73511 9.43547 7.69517C10.643 6.65523 12.1691 6.05843 13.7618 6.0034C15.3544 5.94837 16.9182 6.4384 18.1945 7.39251L21.0383 4.54876C18.9543 2.8185 16.3045 1.91921 13.5979 2.0236C10.8912 2.128 8.31857 3.22871 6.37403 5.11434C4.42949 6.99997 3.25018 9.53755 3.0626 12.2397C2.87502 14.9419 3.6924 17.6181 5.35774 19.7543C7.02309 21.8905 9.41898 23.3361 12.0852 23.8135C14.7515 24.2909 17.5001 23.7663 19.8032 22.3406C22.1063 20.9149 23.8014 18.6886 24.563 16.0892C25.3247 13.4898 25.099 10.7007 23.9295 8.25751C23.8152 8.01815 23.8006 7.74316 23.8889 7.49304C23.9773 7.24291 24.1614 7.03813 24.4008 6.92376C24.6402 6.80938 24.9151 6.79478 25.1653 6.88316C25.4154 6.97153 25.6202 7.15565 25.7345 7.39501Z" fill="#8C6BFA"/>
</svg>
