<svg width="33" height="32" viewBox="0 0 33 32" fill="none" xmlns="http://www.w3.org/2000/svg">
<path opacity="0.2" d="M20.5 16C20.5 16.7911 20.2654 17.5645 19.8259 18.2223C19.3864 18.8801 18.7616 19.3928 18.0307 19.6955C17.2998 19.9983 16.4956 20.0775 15.7196 19.9231C14.9437 19.7688 14.231 19.3878 13.6716 18.8284C13.1122 18.269 12.7312 17.5563 12.5769 16.7804C12.4225 16.0044 12.5017 15.2002 12.8045 14.4693C13.1072 13.7384 13.6199 13.1136 14.2777 12.6741C14.9355 12.2346 15.7089 12 16.5 12C17.5609 12 18.5783 12.4214 19.3284 13.1716C20.0786 13.9217 20.5 14.9391 20.5 16ZM25.5 8C25.7117 9.24915 26.3067 10.4015 27.2026 11.2974C28.0985 12.1933 29.2509 12.7883 30.5 13V8H25.5ZM25.5 24H30.5V19C29.2509 19.2117 28.0985 19.8067 27.2026 20.7026C26.3067 21.5985 25.7117 22.7509 25.5 24ZM2.5 19V24H7.5C7.28828 22.7509 6.69326 21.5985 5.79738 20.7026C4.9015 19.8067 3.74915 19.2117 2.5 19ZM2.5 13C3.74915 12.7883 4.9015 12.1933 5.79738 11.2974C6.69326 10.4015 7.28828 9.24915 7.5 8H2.5V13Z" fill="#8C6BFA"/>
<path d="M16.5 11C15.5111 11 14.5444 11.2932 13.7221 11.8427C12.8999 12.3921 12.259 13.173 11.8806 14.0866C11.5022 15.0002 11.4031 16.0055 11.5961 16.9755C11.789 17.9454 12.2652 18.8363 12.9645 19.5355C13.6637 20.2348 14.5546 20.711 15.5245 20.9039C16.4945 21.0969 17.4998 20.9978 18.4134 20.6194C19.327 20.241 20.1079 19.6001 20.6573 18.7779C21.2068 17.9556 21.5 16.9889 21.5 16C21.5 14.6739 20.9732 13.4021 20.0355 12.4645C19.0979 11.5268 17.8261 11 16.5 11ZM16.5 19C15.9067 19 15.3266 18.8241 14.8333 18.4944C14.3399 18.1648 13.9554 17.6962 13.7284 17.1481C13.5013 16.5999 13.4419 15.9967 13.5576 15.4147C13.6734 14.8328 13.9591 14.2982 14.3787 13.8787C14.7982 13.4591 15.3328 13.1734 15.9147 13.0576C16.4967 12.9419 17.0999 13.0013 17.6481 13.2284C18.1962 13.4554 18.6648 13.8399 18.9944 14.3333C19.3241 14.8266 19.5 15.4067 19.5 16C19.5 16.7956 19.1839 17.5587 18.6213 18.1213C18.0587 18.6839 17.2956 19 16.5 19ZM30.5 7H2.5C2.23478 7 1.98043 7.10536 1.79289 7.29289C1.60536 7.48043 1.5 7.73478 1.5 8V24C1.5 24.2652 1.60536 24.5196 1.79289 24.7071C1.98043 24.8946 2.23478 25 2.5 25H30.5C30.7652 25 31.0196 24.8946 31.2071 24.7071C31.3946 24.5196 31.5 24.2652 31.5 24V8C31.5 7.73478 31.3946 7.48043 31.2071 7.29289C31.0196 7.10536 30.7652 7 30.5 7ZM3.5 9H6.17125C5.65549 10.1995 4.69945 11.1555 3.5 11.6713V9ZM3.5 23V20.3288C4.69945 20.8445 5.65549 21.8005 6.17125 23H3.5ZM29.5 23H26.8288C27.3445 21.8005 28.3005 20.8445 29.5 20.3288V23ZM29.5 18.2062C28.3645 18.542 27.3311 19.1565 26.4938 19.9938C25.6565 20.8311 25.042 21.8645 24.7062 23H8.29375C7.95801 21.8645 7.34351 20.8311 6.50623 19.9938C5.66895 19.1565 4.6355 18.542 3.5 18.2062V13.7937C4.6355 13.458 5.66895 12.8435 6.50623 12.0062C7.34351 11.1689 7.95801 10.1355 8.29375 9H24.7062C25.042 10.1355 25.6565 11.1689 26.4938 12.0062C27.3311 12.8435 28.3645 13.458 29.5 13.7937V18.2062ZM29.5 11.6713C28.3005 11.1555 27.3445 10.1995 26.8288 9H29.5V11.6713Z" fill="#8C6BFA"/>
<rect x="32.5" y="32" width="16" height="16" rx="8" transform="rotate(-180 32.5 32)" fill="#2E2170"/>
<path d="M19.4802 23.8402C19.5228 23.943 19.5949 24.0309 19.6874 24.0927C19.7799 24.1545 19.8887 24.1875 20 24.1875L21.6875 24.1875L21.6875 27.75C21.6875 27.9986 21.7863 28.2371 21.9621 28.4129C22.1379 28.5887 22.3764 28.6875 22.625 28.6875L26.375 28.6875C26.6237 28.6875 26.8621 28.5887 27.0379 28.4129C27.2138 28.2371 27.3125 27.9986 27.3125 27.75L27.3125 24.1875L29 24.1875C29.1113 24.1875 29.2201 24.1545 29.3126 24.0926C29.4051 24.0308 29.4772 23.9429 29.5197 23.8401C29.5623 23.7373 29.5734 23.6242 29.5516 23.515C29.5299 23.4059 29.4763 23.3057 29.3975 23.227L24.8975 18.727C24.8453 18.6746 24.7832 18.633 24.7148 18.6046C24.6464 18.5762 24.5731 18.5616 24.4991 18.5616C24.4251 18.5616 24.3518 18.5762 24.2834 18.6046C24.215 18.633 24.1529 18.6746 24.1007 18.727L19.6007 23.227C19.5222 23.3059 19.4689 23.4062 19.4475 23.5153C19.426 23.6245 19.4374 23.7375 19.4802 23.8402ZM24.5 19.9219L27.6407 23.0625L26.75 23.0625C26.6008 23.0625 26.4578 23.1218 26.3523 23.2273C26.2468 23.3327 26.1875 23.4758 26.1875 23.625L26.1875 27.5625L22.8125 27.5625L22.8125 23.625C22.8125 23.4758 22.7533 23.3327 22.6478 23.2273C22.5423 23.1218 22.3992 23.0625 22.25 23.0625L21.3594 23.0625L24.5 19.9219Z" fill="#E9EEFF"/>
</svg>
