<svg width="23" height="26" viewBox="0 0 23 26" fill="none" xmlns="http://www.w3.org/2000/svg">
<path d="M22.3716 5.2925L17.3716 0.2925C17.2786 0.199666 17.1683 0.126052 17.0469 0.0758639C16.9255 0.0256758 16.7954 -0.000102986 16.6641 3.09198e-07H6.66406C6.13363 3.09198e-07 5.62492 0.210714 5.24985 0.585787C4.87478 0.960859 4.66406 1.46957 4.66406 2V4H2.66406C2.13363 4 1.62492 4.21071 1.24985 4.58579C0.874776 4.96086 0.664063 5.46957 0.664062 6V24C0.664063 24.5304 0.874776 25.0391 1.24985 25.4142C1.62492 25.7893 2.13363 26 2.66406 26H16.6641C17.1945 26 17.7032 25.7893 18.0783 25.4142C18.4533 25.0391 18.6641 24.5304 18.6641 24V22H20.6641C21.1945 22 21.7032 21.7893 22.0783 21.4142C22.4533 21.0391 22.6641 20.5304 22.6641 20V6C22.6642 5.86864 22.6384 5.73855 22.5882 5.61715C22.538 5.49576 22.4644 5.38544 22.3716 5.2925ZM16.6641 24H2.66406V6H12.2503L16.6641 10.4137V20.98C16.6641 20.9875 16.6641 20.9937 16.6641 21C16.6641 21.0063 16.6641 21.0125 16.6641 21.02V24ZM20.6641 20H18.6641V10C18.6642 9.86864 18.6384 9.73855 18.5882 9.61715C18.538 9.49576 18.4644 9.38544 18.3716 9.2925L13.3716 4.2925C13.2786 4.19967 13.1683 4.12605 13.0469 4.07586C12.9255 4.02568 12.7954 3.9999 12.6641 4H6.66406V2H16.2503L20.6641 6.41375V20ZM13.6641 16C13.6641 16.2652 13.5587 16.5196 13.3712 16.7071C13.1836 16.8946 12.9293 17 12.6641 17H6.66406C6.39885 17 6.14449 16.8946 5.95696 16.7071C5.76942 16.5196 5.66406 16.2652 5.66406 16C5.66406 15.7348 5.76942 15.4804 5.95696 15.2929C6.14449 15.1054 6.39885 15 6.66406 15H12.6641C12.9293 15 13.1836 15.1054 13.3712 15.2929C13.5587 15.4804 13.6641 15.7348 13.6641 16ZM13.6641 20C13.6641 20.2652 13.5587 20.5196 13.3712 20.7071C13.1836 20.8946 12.9293 21 12.6641 21H6.66406C6.39885 21 6.14449 20.8946 5.95696 20.7071C5.76942 20.5196 5.66406 20.2652 5.66406 20C5.66406 19.7348 5.76942 19.4804 5.95696 19.2929C6.14449 19.1054 6.39885 19 6.66406 19H12.6641C12.9293 19 13.1836 19.1054 13.3712 19.2929C13.5587 19.4804 13.6641 19.7348 13.6641 20Z" fill="#8C6BFA"/>
</svg>
