<svg width="32" height="22" viewBox="0 0 32 22" fill="none" xmlns="http://www.w3.org/2000/svg">
<path d="M14.9681 21.2426C14.914 21.459 14.7892 21.651 14.6134 21.7883C14.4376 21.9255 14.2211 22.0001 13.9981 22.0001C13.9138 22.0005 13.8298 21.9905 13.7481 21.9701L9.74806 20.9701C9.6367 20.9422 9.53099 20.8952 9.43556 20.8314L6.43556 18.8314C6.21494 18.6842 6.06182 18.4554 6.0099 18.1953C5.95797 17.9352 6.01149 17.6651 6.15869 17.4445C6.30588 17.2239 6.53469 17.0708 6.79478 17.0188C7.05487 16.9669 7.32494 17.0204 7.54556 17.1676L10.4006 19.0714L14.2331 20.0301C14.3611 20.0612 14.4818 20.1172 14.5881 20.195C14.6944 20.2729 14.7843 20.3709 14.8526 20.4836C14.9209 20.5963 14.9663 20.7213 14.9861 20.8516C15.0059 20.9819 14.9998 21.1148 14.9681 21.2426ZM31.5543 9.18514C31.4723 9.43436 31.3416 9.66486 31.17 9.86332C30.9984 10.0618 30.7891 10.2243 30.5543 10.3414L27.5943 11.8214L20.7093 18.7076C20.5871 18.8297 20.4354 18.9181 20.2689 18.9641C20.1024 19.0101 19.9268 19.0122 19.7593 18.9701L11.7593 16.9701C11.6377 16.9396 11.5228 16.8866 11.4206 16.8139L4.48056 11.8589L1.44556 10.3414C0.971234 10.1043 0.610491 9.68848 0.442656 9.18545C0.274821 8.68241 0.313635 8.13331 0.550564 7.65889L3.65681 1.44764C3.89393 0.973308 4.30972 0.612564 4.81276 0.444729C5.31579 0.276895 5.86489 0.315709 6.33931 0.552638L9.09681 1.92764L15.7218 0.0351378C15.9015 -0.0162699 16.0921 -0.0162699 16.2718 0.0351378L22.8968 1.92764L25.6543 0.552638C26.1287 0.315709 26.6778 0.276895 27.1809 0.444729C27.6839 0.612564 28.0997 0.973308 28.3368 1.44764L31.4431 7.65889C31.5615 7.89332 31.6324 8.14891 31.6515 8.41088C31.6706 8.67285 31.6375 8.93601 31.5543 9.18514ZM25.7818 10.8026L22.3806 4.00014H18.4031L12.9981 9.25014C14.5806 10.2614 17.0618 10.5401 19.2881 8.29639C19.4619 8.12114 19.6945 8.01639 19.9409 8.00231C20.1874 7.98824 20.4304 8.06582 20.6231 8.22014L24.9243 11.6664L25.7818 10.8026ZM2.33931 8.55264L4.55056 9.65889L7.65681 3.44764L5.44556 2.34139L2.33931 8.55264ZM23.4981 13.0826L20.0343 10.3089C17.5918 12.3089 14.4906 12.5726 11.9206 10.9339C11.6678 10.7731 11.4543 10.5575 11.296 10.3031C11.1377 10.0488 11.0386 9.76208 11.0059 9.46424C10.9733 9.16641 11.008 8.86505 11.1074 8.58243C11.2069 8.2998 11.3686 8.04313 11.5806 7.83139C11.5836 7.82775 11.5869 7.8244 11.5906 7.82139L17.1981 2.38264L15.9981 2.04014L9.69556 3.84139L6.27431 10.6826L12.4243 15.0764L19.6918 16.8926L23.4981 13.0826ZM29.6531 8.55264L26.5506 2.34139L24.3393 3.44764L27.4456 9.65889L29.6531 8.55264Z" fill="#2E2170"/>
</svg>
