<svg width="32" height="32" viewBox="0 0 32 32" fill="none" xmlns="http://www.w3.org/2000/svg">
<path opacity="0.2" d="M24 14C24 15.9778 23.4135 17.9112 22.3147 19.5557C21.2159 21.2002 19.6541 22.4819 17.8268 23.2388C15.9996 23.9957 13.9889 24.1937 12.0491 23.8079C10.1093 23.422 8.32746 22.4696 6.92894 21.0711C5.53041 19.6725 4.578 17.8907 4.19215 15.9509C3.8063 14.0111 4.00433 12.0004 4.76121 10.1732C5.51809 8.3459 6.79981 6.78412 8.4443 5.6853C10.0888 4.58649 12.0222 4 14 4C15.3132 4 16.6136 4.25866 17.8268 4.7612C19.0401 5.26375 20.1425 6.00035 21.0711 6.92893C21.9997 7.85752 22.7363 8.95991 23.2388 10.1732C23.7413 11.3864 24 12.6868 24 14Z" fill="#E9EEFF"/>
<path d="M28.7075 27.2922L22.45 21.0347C24.2672 18.8552 25.1742 16.059 24.9823 13.2278C24.7904 10.3967 23.5144 7.74846 21.4197 5.83415C19.3249 3.91984 16.5728 2.88683 13.7359 2.95C10.8989 3.01318 8.19547 4.16768 6.18804 6.17334C4.18061 8.17899 3.02372 10.8814 2.95804 13.7183C2.89235 16.5552 3.92294 19.3082 5.83539 21.4047C7.74785 23.5011 10.3949 24.7795 13.2259 24.9739C16.0569 25.1683 18.8539 24.2637 21.035 22.4484L27.2925 28.7072C27.3854 28.8001 27.4957 28.8738 27.6171 28.9241C27.7385 28.9743 27.8686 29.0002 28 29.0002C28.1314 29.0002 28.2615 28.9743 28.3829 28.9241C28.5043 28.8738 28.6146 28.8001 28.7075 28.7072C28.8004 28.6143 28.8741 28.504 28.9244 28.3826C28.9747 28.2612 29.0006 28.1311 29.0006 27.9997C29.0006 27.8683 28.9747 27.7382 28.9244 27.6168C28.8741 27.4954 28.8004 27.3851 28.7075 27.2922ZM5 13.9997C5 12.2196 5.52784 10.4796 6.51677 8.99954C7.5057 7.5195 8.91131 6.36594 10.5558 5.68476C12.2004 5.00357 14.01 4.82534 15.7558 5.1726C17.5016 5.51987 19.1053 6.37704 20.364 7.63571C21.6226 8.89438 22.4798 10.498 22.8271 12.2439C23.1743 13.9897 22.9961 15.7993 22.3149 17.4438C21.6337 19.0884 20.4802 20.494 19.0001 21.4829C17.5201 22.4718 15.78 22.9997 14 22.9997C11.6139 22.997 9.32621 22.048 7.63896 20.3607C5.95171 18.6735 5.00264 16.3858 5 13.9997Z" fill="#E9EEFF"/>
</svg>
