<svg width="24" height="24" viewBox="0 0 24 24" fill="none" xmlns="http://www.w3.org/2000/svg">
<path opacity="0.2" d="M18 10.5C18 11.9834 17.5601 13.4334 16.736 14.6668C15.9119 15.9001 14.7406 16.8614 13.3701 17.4291C11.9997 17.9968 10.4917 18.1453 9.03683 17.8559C7.58197 17.5665 6.2456 16.8522 5.1967 15.8033C4.14781 14.7544 3.4335 13.418 3.14411 11.9632C2.85472 10.5083 3.00325 9.00032 3.57091 7.62987C4.13856 6.25943 5.09986 5.08809 6.33323 4.26398C7.5666 3.43987 9.01664 3 10.5 3C11.4849 3 12.4602 3.19399 13.3701 3.5709C14.2801 3.94781 15.1069 4.50026 15.8033 5.1967C16.4997 5.89314 17.0522 6.71993 17.4291 7.62987C17.806 8.53982 18 9.51509 18 10.5Z" fill="#2E2170"/>
<path d="M21.5311 20.4696L16.838 15.7765C18.2009 14.1419 18.8812 12.0448 18.7372 9.92137C18.5933 7.79798 17.6363 5.81183 16.0652 4.3761C14.4942 2.94037 12.4301 2.16561 10.3024 2.21299C8.17464 2.26037 6.14709 3.12625 4.64152 4.63049C3.13595 6.13473 2.26828 8.16152 2.21901 10.2892C2.16975 12.4169 2.94269 14.4817 4.37703 16.054C5.81137 17.6263 7.79668 18.5851 9.91994 18.7309C12.0432 18.8767 14.1409 18.1983 15.7767 16.8368L20.4699 21.5309C20.5395 21.6005 20.6223 21.6558 20.7133 21.6935C20.8044 21.7312 20.9019 21.7507 21.0005 21.7507C21.099 21.7507 21.1966 21.7312 21.2877 21.6935C21.3787 21.6558 21.4614 21.6005 21.5311 21.5309C21.6008 21.4612 21.6561 21.3785 21.6938 21.2874C21.7315 21.1964 21.7509 21.0988 21.7509 21.0002C21.7509 20.9017 21.7315 20.8041 21.6938 20.7131C21.6561 20.622 21.6008 20.5393 21.5311 20.4696ZM3.75049 10.5002C3.75049 9.16522 4.14637 7.86017 4.88807 6.75014C5.62977 5.64011 6.68397 4.77495 7.91737 4.26406C9.15077 3.75316 10.508 3.61949 11.8173 3.87994C13.1267 4.14039 14.3295 4.78327 15.2735 5.72727C16.2175 6.67128 16.8603 7.87401 17.1208 9.18338C17.3812 10.4928 17.2476 11.85 16.7367 13.0834C16.2258 14.3168 15.3606 15.371 14.2506 16.1127C13.1406 16.8544 11.8355 17.2502 10.5005 17.2502C8.71088 17.2483 6.99515 16.5365 5.72971 15.271C4.46427 14.0056 3.75247 12.2898 3.75049 10.5002Z" fill="#2E2170"/>
</svg>
