<svg width="24" height="24" viewBox="0 0 24 24" fill="none" xmlns="http://www.w3.org/2000/svg">
<path opacity="0.2" d="M21.75 11.25C21.75 12.2446 21.3549 13.1984 20.6517 13.9017C19.9484 14.6049 18.9946 15 18 15H14.25V7.5H18C18.9946 7.5 19.9484 7.89509 20.6517 8.59835C21.3549 9.30161 21.75 10.2554 21.75 11.25Z" fill="#2E2170"/>
<path d="M22.5 11.2498C22.4988 10.0567 22.0243 8.91287 21.1806 8.06923C20.337 7.22558 19.1931 6.75108 18 6.74984H14.2687C13.9959 6.7339 9.24188 6.39921 4.71469 2.60234C4.49607 2.41873 4.22959 2.30132 3.94656 2.26391C3.66353 2.2265 3.37571 2.27064 3.11689 2.39114C2.85807 2.51163 2.63902 2.70349 2.48546 2.94417C2.3319 3.18484 2.25022 3.46434 2.25 3.74984V18.7498C2.25004 19.0354 2.3316 19.315 2.48508 19.5558C2.63857 19.7967 2.85761 19.9887 3.11646 20.1093C3.37532 20.2299 3.66322 20.2741 3.94633 20.2367C4.22945 20.1994 4.49601 20.0819 4.71469 19.8983C8.25563 16.9283 11.9334 16.077 13.5 15.8389V18.8126C13.4997 19.0598 13.5605 19.3032 13.6769 19.5213C13.7934 19.7393 13.9619 19.9252 14.1675 20.0623L15.1987 20.7495C15.3981 20.8826 15.6264 20.9659 15.8645 20.9926C16.1027 21.0193 16.3438 20.9885 16.5676 20.9028C16.7914 20.8172 16.9914 20.6791 17.151 20.5003C17.3105 20.3214 17.4248 20.107 17.4844 19.8748L18.5878 15.7161C19.6704 15.572 20.6638 15.0398 21.3834 14.2183C22.103 13.3968 22.4998 12.3419 22.5 11.2498ZM3.75 18.7433V3.74984C7.76344 7.1164 11.8716 7.96859 13.5 8.17859V14.3173C11.8734 14.5311 7.76625 15.3814 3.75 18.7433ZM16.0312 19.4933V19.5036L15 18.8164V15.7498H17.025L16.0312 19.4933ZM18 14.2498H15V8.24984H18C18.7956 8.24984 19.5587 8.56591 20.1213 9.12852C20.6839 9.69112 21 10.4542 21 11.2498C21 12.0455 20.6839 12.8085 20.1213 13.3712C19.5587 13.9338 18.7956 14.2498 18 14.2498Z" fill="#2E2170"/>
</svg>
