<svg width="32" height="32" viewBox="0 0 32 32" fill="none" xmlns="http://www.w3.org/2000/svg">
<path opacity="0.2" d="M28 13C25.8988 15.6012 22.0462 19 16 19C9.95375 19 6.10125 15.6012 4 13C6.10125 10.3988 9.95375 7 16 7C22.0462 7 25.8988 10.3988 28 13Z" fill="#E9EEFF"/>
<path d="M28.4999 21.8747C28.3857 21.9398 28.2598 21.9818 28.1293 21.9982C27.9989 22.0146 27.8665 22.0051 27.7397 21.9703C27.6129 21.9355 27.4942 21.876 27.3904 21.7952C27.2867 21.7145 27.1999 21.614 27.1349 21.4997L24.7599 17.3497C23.3792 18.2833 21.856 18.9866 20.2499 19.4322L20.9837 23.8347C21.0053 23.9643 21.0012 24.0969 20.9716 24.2249C20.942 24.3529 20.8874 24.4739 20.811 24.5808C20.7346 24.6877 20.6379 24.7785 20.5264 24.848C20.4149 24.9176 20.2908 24.9644 20.1612 24.9859C20.1079 24.9947 20.054 24.9993 19.9999 24.9997C19.7634 24.9993 19.5346 24.9151 19.3542 24.762C19.1739 24.6089 19.0537 24.3968 19.0149 24.1634L18.2937 19.8409C16.7727 20.0526 15.2297 20.0526 13.7087 19.8409L12.9874 24.1634C12.9486 24.3972 12.828 24.6097 12.6472 24.7628C12.4663 24.916 12.2369 24.9999 11.9999 24.9997C11.9447 24.9995 11.8895 24.9949 11.8349 24.9859C11.7053 24.9644 11.5812 24.9176 11.4697 24.848C11.3582 24.7785 11.2615 24.6877 11.1851 24.5808C11.1087 24.4739 11.0541 24.3529 11.0245 24.2249C10.9949 24.0969 10.9908 23.9643 11.0124 23.8347L11.7499 19.4322C10.1445 18.9852 8.62219 18.2806 7.24244 17.3459L4.87494 21.4997C4.74233 21.7308 4.52336 21.8997 4.2662 21.9693C4.00904 22.0389 3.73476 22.0036 3.50369 21.8709C3.27262 21.7383 3.10369 21.5194 3.03407 21.2622C2.96444 21.0051 2.99983 20.7308 3.13244 20.4997L5.63244 16.1247C4.75431 15.366 3.94683 14.5293 3.21994 13.6247C3.12928 13.5235 3.06021 13.4049 3.01693 13.2761C2.97365 13.1473 2.95707 13.011 2.96821 12.8756C2.97934 12.7402 3.01796 12.6084 3.0817 12.4884C3.14544 12.3684 3.23296 12.2627 3.33893 12.1776C3.4449 12.0926 3.56708 12.03 3.69803 11.9938C3.82898 11.9575 3.96595 11.9483 4.10056 11.9668C4.23518 11.9852 4.36463 12.0309 4.48101 12.101C4.59738 12.1712 4.69824 12.2643 4.77744 12.3747C6.85244 14.9422 10.4824 17.9997 15.9999 17.9997C21.5174 17.9997 25.1474 14.9384 27.2224 12.3747C27.3007 12.262 27.4014 12.1667 27.5181 12.0946C27.6348 12.0225 27.7651 11.9751 27.9009 11.9556C28.0367 11.936 28.1751 11.9445 28.3074 11.9807C28.4398 12.0169 28.5632 12.08 28.6702 12.1659C28.7771 12.2519 28.8652 12.3589 28.929 12.4804C28.9928 12.6019 29.0309 12.7352 29.041 12.872C29.051 13.0088 29.0328 13.1463 28.9875 13.2757C28.9421 13.4052 28.8706 13.524 28.7774 13.6247C28.0505 14.5293 27.2431 15.366 26.3649 16.1247L28.8649 20.4997C28.932 20.6137 28.9759 20.74 28.9938 20.8711C29.0118 21.0022 29.0036 21.1355 28.9696 21.2634C28.9357 21.3913 28.8767 21.5112 28.796 21.6161C28.7154 21.7211 28.6148 21.809 28.4999 21.8747Z" fill="#E9EEFF"/>
</svg>
