<svg width="32" height="22" viewBox="0 0 32 22" fill="none" xmlns="http://www.w3.org/2000/svg">
<path d="M14.97 21.2426C14.9159 21.459 14.7911 21.651 14.6154 21.7883C14.4396 21.9255 14.223 22.0001 14 22.0001C13.9158 22.0005 13.8318 21.9905 13.75 21.9701L9.75002 20.9701C9.63866 20.9422 9.53295 20.8952 9.43752 20.8314L6.43752 18.8314C6.21689 18.6842 6.06377 18.4554 6.01185 18.1953C5.95992 17.9352 6.01345 17.6651 6.16064 17.4445C6.30784 17.2239 6.53665 17.0708 6.79674 17.0188C7.05683 16.9669 7.32689 17.0204 7.54752 17.1676L10.4025 19.0714L14.235 20.0301C14.3631 20.0612 14.4837 20.1172 14.59 20.195C14.6964 20.2729 14.7863 20.3709 14.8546 20.4836C14.9229 20.5963 14.9682 20.7213 14.988 20.8516C15.0078 20.9819 15.0017 21.1148 14.97 21.2426ZM31.5563 9.18514C31.4742 9.43436 31.3436 9.66486 31.172 9.86332C31.0003 10.0618 30.7911 10.2243 30.5563 10.3414L27.5963 11.8214L20.7113 18.7076C20.5891 18.8297 20.4373 18.9181 20.2709 18.9641C20.1044 19.0101 19.9288 19.0122 19.7613 18.9701L11.7613 16.9701C11.6396 16.9396 11.5247 16.8866 11.4225 16.8139L4.48252 11.8589L1.44752 10.3414C0.973187 10.1043 0.612444 9.68848 0.444609 9.18545C0.276774 8.68241 0.315588 8.13331 0.552517 7.65889L3.65877 1.44764C3.89588 0.973308 4.31167 0.612564 4.81471 0.444729C5.31774 0.276895 5.86684 0.315709 6.34127 0.552638L9.09877 1.92764L15.7238 0.0351378C15.9035 -0.0162699 16.094 -0.0162699 16.2738 0.0351378L22.8988 1.92764L25.6563 0.552638C26.1307 0.315709 26.6798 0.276895 27.1828 0.444729C27.6859 0.612564 28.1017 0.973308 28.3388 1.44764L31.445 7.65889C31.5635 7.89332 31.6343 8.14891 31.6534 8.41088C31.6725 8.67285 31.6395 8.93601 31.5563 9.18514ZM25.7838 10.8026L22.3825 4.00014H18.405L13 9.25014C14.5825 10.2614 17.0638 10.5401 19.29 8.29639C19.4639 8.12114 19.6964 8.01639 19.9429 8.00231C20.1894 7.98824 20.4323 8.06582 20.625 8.22014L24.9263 11.6664L25.7838 10.8026ZM2.34127 8.55264L4.55252 9.65889L7.65877 3.44764L5.44752 2.34139L2.34127 8.55264ZM23.5 13.0826L20.0363 10.3089C17.5938 12.3089 14.4925 12.5726 11.9225 10.9339C11.6697 10.7731 11.4563 10.5575 11.298 10.3031C11.1396 10.0488 11.0405 9.76208 11.0079 9.46424C10.9752 9.16641 11.0099 8.86505 11.1094 8.58243C11.2088 8.2998 11.3705 8.04313 11.5825 7.83139C11.5855 7.82775 11.5889 7.8244 11.5925 7.82139L17.2 2.38264L16 2.04014L9.69752 3.84139L6.27627 10.6826L12.4263 15.0764L19.6938 16.8926L23.5 13.0826ZM29.655 8.55264L26.5525 2.34139L24.3413 3.44764L27.4475 9.65889L29.655 8.55264Z" fill="#2E2170"/>
</svg>
