<svg width="26" height="26" viewBox="0 0 26 26" fill="none" xmlns="http://www.w3.org/2000/svg">
<path d="M4.08665 8.72888L6.38838 6.38777L10.6988 1.98349C11.2135 1.60115 11.7766 1.29189 12.3727 1.06415C12.521 1.03232 12.6712 1.01088 12.8225 1H13.1887C13.62 1.00717 14.046 1.09786 14.4441 1.26725C14.7519 1.39246 15.0407 1.56162 15.302 1.76968C15.3857 1.83382 15.4695 1.91934 15.5532 1.99417L19.8739 6.40915C19.8739 6.40915 22.1443 8.92131 22.1966 8.96407M21.8512 17.7833C20.4075 19.2586 16.9864 22.5831 15.574 24.0691C15.3864 24.2493 15.1793 24.4071 14.9568 24.5394C14.7272 24.6836 14.4814 24.7985 14.2245 24.8815C14.0537 24.9359 13.8787 24.9752 13.7014 24.9991C13.5549 24.9991 13.3979 24.9991 13.2514 24.9991C12.8167 25.0091 12.3839 24.9366 11.9751 24.7853C11.6446 24.67 11.3366 24.4963 11.0649 24.2722C10.9113 24.1649 10.7708 24.0393 10.6464 23.898C9.24447 22.4656 6.2418 19.7396 4.83988 18.3071M4.87135 7.9592C5.06927 7.98587 5.26984 7.98587 5.46776 7.9592H6.73363C6.88666 7.94289 7.04087 7.94289 7.1939 7.9592C7.50622 8.03073 7.80151 8.1652 8.06234 8.35474C8.16808 8.4344 8.26929 8.52005 8.36565 8.6113L11.9856 12.1604C12.2255 12.3941 12.5275 12.5503 12.8539 12.6094C13.2075 12.6698 13.5706 12.6253 13.9001 12.4811C14.0394 12.4173 14.1696 12.3346 14.2872 12.2352C14.894 11.69 15.459 11.1021 16.0449 10.5248L18.0118 8.6006C18.3453 8.27475 18.7626 8.05233 19.215 7.9592C19.3158 7.94816 19.4174 7.94816 19.5183 7.9592C20.0204 7.9592 20.5645 7.9592 21.0144 7.9592H21.1922C21.2206 7.99744 21.2522 8.0332 21.2864 8.0661L23.881 10.621C24.2056 10.9267 24.4748 11.2886 24.6761 11.69C24.791 11.9423 24.8753 12.2079 24.9272 12.4811C24.967 12.6747 24.9914 12.8714 25.0004 13.069C25.0072 13.5288 24.9292 13.9858 24.7702 14.416C24.6461 14.7418 24.477 15.0478 24.2681 15.3246C24.1394 15.4844 23.9995 15.6345 23.8496 15.7736C23.0022 16.6181 22.1443 17.4519 21.2864 18.2858L21.2026 18.3927H19.9158C19.7313 18.4089 19.5458 18.4089 19.3613 18.3927C18.9454 18.3505 18.5481 18.1955 18.2105 17.9437C18.1222 17.8783 18.0383 17.8069 17.9594 17.7299L14.4547 14.2877C14.2729 14.1014 14.0604 13.9495 13.827 13.8387C13.6907 13.7883 13.5508 13.749 13.4084 13.7211C13.3009 13.7052 13.1916 13.7052 13.0841 13.7211C12.7081 13.7149 12.3405 13.8351 12.0379 14.0632L11.8496 14.2236L8.29247 17.7192C8.02122 17.9788 7.70074 18.1789 7.35086 18.3071C7.18569 18.3689 7.01337 18.4084 6.83823 18.4247C6.68497 18.4356 6.53122 18.4356 6.37796 18.4247H5.25844C5.1022 18.4035 4.94395 18.4035 4.7877 18.4247C4.75522 18.4057 4.72669 18.3803 4.70392 18.3499L1.94205 15.6453C1.76846 15.4628 1.6141 15.2622 1.48165 15.0467C1.31629 14.7894 1.18936 14.5084 1.10503 14.2129C1.06023 14.0586 1.02531 13.9014 1.00043 13.7425C1.00043 13.5928 1.00043 13.4325 1.00043 13.2828C0.993425 12.83 1.07153 12.38 1.23057 11.9573C1.3497 11.6268 1.52305 11.3196 1.7432 11.0486C1.86457 10.889 1.99747 10.739 2.14076 10.5996L4.72487 8.0661C4.77679 8.03512 4.82583 7.99934 4.87135 7.9592Z" stroke="#8C6BFA" stroke-width="2" stroke-miterlimit="10"/>
</svg>
