<svg width="20" height="17" viewBox="0 0 20 17" fill="none" xmlns="http://www.w3.org/2000/svg">
<path d="M13.2913 6.45424L8.79125 3.45424C8.67827 3.37886 8.54695 3.33558 8.41129 3.329C8.27564 3.32243 8.14075 3.35282 8.02101 3.41692C7.90128 3.48102 7.8012 3.57643 7.73145 3.69297C7.6617 3.80951 7.62491 3.9428 7.625 4.07861V10.0786C7.62491 10.2144 7.6617 10.3477 7.73145 10.4643C7.8012 10.5808 7.90128 10.6762 8.02101 10.7403C8.14075 10.8044 8.27564 10.8348 8.41129 10.8282C8.54695 10.8216 8.67827 10.7784 8.79125 10.703L13.2913 7.70299C13.3941 7.63453 13.4785 7.5417 13.5368 7.43278C13.5952 7.32385 13.6257 7.20219 13.6257 7.07861C13.6257 6.95504 13.5952 6.83338 13.5368 6.72445C13.4785 6.61552 13.3941 6.5227 13.2913 6.45424ZM9.125 8.67705V5.48486L11.5231 7.07861L9.125 8.67705ZM18.125 0.328613H1.625C1.22718 0.328613 0.845644 0.486648 0.56434 0.767953C0.283035 1.04926 0.125 1.43079 0.125 1.82861V12.3286C0.125 12.7264 0.283035 13.108 0.56434 13.3893C0.845644 13.6706 1.22718 13.8286 1.625 13.8286H18.125C18.5228 13.8286 18.9044 13.6706 19.1857 13.3893C19.467 13.108 19.625 12.7264 19.625 12.3286V1.82861C19.625 1.43079 19.467 1.04926 19.1857 0.767953C18.9044 0.486648 18.5228 0.328613 18.125 0.328613ZM18.125 12.3286H1.625V1.82861H18.125V12.3286ZM19.625 16.0786C19.625 16.2775 19.546 16.4683 19.4053 16.6089C19.2647 16.7496 19.0739 16.8286 18.875 16.8286H0.875C0.676088 16.8286 0.485322 16.7496 0.34467 16.6089C0.204018 16.4683 0.125 16.2775 0.125 16.0786C0.125 15.8797 0.204018 15.6889 0.34467 15.5483C0.485322 15.4076 0.676088 15.3286 0.875 15.3286H18.875C19.0739 15.3286 19.2647 15.4076 19.4053 15.5483C19.546 15.6889 19.625 15.8797 19.625 16.0786Z" fill="#8C6BFA"/>
</svg>
