<svg width="23" height="31" viewBox="0 0 23 31" fill="none" xmlns="http://www.w3.org/2000/svg">
<path d="M22.6875 11.7106C22.6886 9.85689 22.2212 8.03293 21.3287 6.40816C20.4362 4.7834 19.1476 3.41054 17.5825 2.41709C16.0175 1.42365 14.2267 0.84184 12.3766 0.72571C10.5265 0.60958 8.67705 0.962895 7.00004 1.75284C5.32303 2.54278 3.87285 3.74373 2.7842 5.24413C1.69555 6.74454 1.00374 8.49574 0.773028 10.3351C0.542316 12.1744 0.780185 14.0422 1.46454 15.765C2.1489 17.4878 3.25754 19.0097 4.6875 20.1894V29.7106C4.68738 29.8812 4.73088 30.0489 4.81386 30.1979C4.89684 30.3469 5.01655 30.4722 5.1616 30.5619C5.30666 30.6516 5.47224 30.7027 5.64261 30.7103C5.81299 30.718 5.98249 30.682 6.135 30.6056L11.6875 27.8356L17.2413 30.6119C17.3805 30.6785 17.5332 30.7123 17.6875 30.7106C17.9527 30.7106 18.2071 30.6053 18.3946 30.4177C18.5821 30.2302 18.6875 29.9759 18.6875 29.7106V20.1894C19.9387 19.1589 20.9462 17.8643 21.6378 16.3983C22.3294 14.9324 22.6878 13.3315 22.6875 11.7106ZM2.6875 11.7106C2.6875 9.9306 3.21534 8.19054 4.20427 6.7105C5.19321 5.23046 6.59882 4.07691 8.24335 3.39572C9.88789 2.71453 11.6975 2.5363 13.4433 2.88357C15.1891 3.23083 16.7928 4.088 18.0515 5.34667C19.3101 6.60535 20.1673 8.20899 20.5146 9.95482C20.8618 11.7006 20.6836 13.5102 20.0024 15.1548C19.3212 16.7993 18.1677 18.2049 16.6876 19.1939C15.2076 20.1828 13.4675 20.7106 11.6875 20.7106C9.30136 20.708 7.01372 19.7589 5.32646 18.0717C3.63921 16.3844 2.69015 14.0968 2.6875 11.7106ZM16.6875 28.0931L12.1338 25.8169C11.9948 25.7474 11.8416 25.7112 11.6863 25.7112C11.5309 25.7112 11.3777 25.7474 11.2388 25.8169L6.6875 28.0931V21.5069C8.23546 22.2981 9.94907 22.7106 11.6875 22.7106C13.4259 22.7106 15.1395 22.2981 16.6875 21.5069V28.0931ZM11.6875 18.7106C13.072 18.7106 14.4253 18.3001 15.5765 17.5309C16.7276 16.7618 17.6248 15.6685 18.1547 14.3894C18.6845 13.1103 18.8231 11.7029 18.553 10.345C18.2829 8.98713 17.6162 7.73985 16.6372 6.76089C15.6583 5.78192 14.411 5.11523 13.0531 4.84514C11.6953 4.57504 10.2878 4.71366 9.00872 5.24348C7.72963 5.77329 6.63638 6.6705 5.86721 7.82164C5.09804 8.97279 4.6875 10.3262 4.6875 11.7106C4.68949 13.5665 5.42762 15.3459 6.73995 16.6582C8.05227 17.9705 9.83159 18.7086 11.6875 18.7106ZM11.6875 6.71063C12.6764 6.71063 13.6431 7.00388 14.4654 7.55329C15.2876 8.10269 15.9285 8.88359 16.3069 9.79722C16.6853 10.7108 16.7844 11.7162 16.5914 12.6861C16.3985 13.656 15.9223 14.5469 15.223 15.2462C14.5238 15.9454 13.6329 16.4216 12.663 16.6146C11.693 16.8075 10.6877 16.7085 9.77408 16.33C8.86045 15.9516 8.07956 15.3107 7.53015 14.4885C6.98075 13.6662 6.6875 12.6995 6.6875 11.7106C6.6875 10.3846 7.21429 9.11278 8.15197 8.1751C9.08965 7.23742 10.3614 6.71063 11.6875 6.71063Z" fill="#E9EEFF"/>
</svg>
