<svg width="22" height="30" viewBox="0 0 22 30" fill="none" xmlns="http://www.w3.org/2000/svg">
<path d="M22 10.9999C22.0011 9.14619 21.5337 7.32223 20.6412 5.69747C19.7487 4.07271 18.4601 2.69985 16.895 1.7064C15.33 0.712955 13.5392 0.131147 11.6891 0.0150167C9.839 -0.101113 7.98955 0.252201 6.31254 1.04214C4.63553 1.83209 3.18535 3.03303 2.0967 4.53344C1.00805 6.03385 0.31624 7.78505 0.0855283 9.62438C-0.145184 11.4637 0.0926847 13.3315 0.77704 15.0543C1.4614 16.7771 2.57004 18.299 4 19.4787V28.9999C3.99988 29.1705 4.04338 29.3382 4.12636 29.4872C4.20934 29.6362 4.32905 29.7615 4.4741 29.8512C4.61916 29.9409 4.78474 29.992 4.95511 29.9996C5.12549 30.0073 5.29499 29.9713 5.4475 29.8949L11 27.1249L16.5538 29.9012C16.693 29.9678 16.8457 30.0016 17 29.9999C17.2652 29.9999 17.5196 29.8946 17.7071 29.707C17.8946 29.5195 18 29.2652 18 28.9999V19.4787C19.2512 18.4482 20.2587 17.1536 20.9503 15.6876C21.6419 14.2217 22.0003 12.6208 22 10.9999ZM2 10.9999C2 9.21991 2.52784 7.47985 3.51677 5.99981C4.50571 4.51977 5.91132 3.36621 7.55585 2.68502C9.20039 2.00384 11.01 1.82561 12.7558 2.17287C14.5016 2.52014 16.1053 3.37731 17.364 4.63598C18.6226 5.89465 19.4798 7.4983 19.8271 9.24413C20.1743 10.99 19.9961 12.7996 19.3149 14.4441C18.6337 16.0886 17.4802 17.4942 16.0001 18.4832C14.5201 19.4721 12.78 19.9999 11 19.9999C8.61386 19.9973 6.32622 19.0482 4.63896 17.361C2.95171 15.6737 2.00265 13.3861 2 10.9999ZM16 27.3824L11.4463 25.1062C11.3073 25.0367 11.1541 25.0005 10.9988 25.0005C10.8434 25.0005 10.6902 25.0367 10.5513 25.1062L6 27.3824V20.7962C7.54796 21.5874 9.26157 21.9999 11 21.9999C12.7384 21.9999 14.452 21.5874 16 20.7962V27.3824ZM11 17.9999C12.3845 17.9999 13.7378 17.5894 14.889 16.8202C16.0401 16.0511 16.9373 14.9578 17.4672 13.6787C17.997 12.3996 18.1356 10.9922 17.8655 9.63431C17.5954 8.27644 16.9287 7.02916 15.9497 6.05019C14.9708 5.07123 13.7235 4.40454 12.3656 4.13444C11.0078 3.86435 9.6003 4.00297 8.32122 4.53278C7.04213 5.0626 5.94888 5.95981 5.17971 7.11095C4.41054 8.26209 4 9.61547 4 10.9999C4.00199 12.8558 4.74012 14.6352 6.05245 15.9475C7.36477 17.2598 9.14409 17.998 11 17.9999ZM11 5.99994C11.9889 5.99994 12.9556 6.29319 13.7779 6.84259C14.6001 7.392 15.241 8.17289 15.6194 9.08652C15.9978 10.0002 16.0969 11.0055 15.9039 11.9754C15.711 12.9453 15.2348 13.8362 14.5355 14.5355C13.8363 15.2347 12.9454 15.7109 11.9755 15.9039C11.0055 16.0968 10.0002 15.9978 9.08658 15.6193C8.17295 15.2409 7.39206 14.6 6.84265 13.7778C6.29325 12.9555 6 11.9888 6 10.9999C6 9.67386 6.52679 8.40209 7.46447 7.46441C8.40215 6.52672 9.67392 5.99994 11 5.99994Z" fill="#8C6BFA"/>
</svg>
