<svg width="18" height="18" viewBox="0 0 18 18" fill="none" xmlns="http://www.w3.org/2000/svg">
<path d="M18.0006 3.99958V16.9996C18.0006 17.2648 17.8952 17.5192 17.7077 17.7067C17.5201 17.8942 17.2658 17.9996 17.0006 17.9996H4.00056C3.73534 17.9996 3.48099 17.8942 3.29345 17.7067C3.10591 17.5192 3.00056 17.2648 3.00056 16.9996C3.00056 16.7344 3.10591 16.48 3.29345 16.2925C3.48099 16.1049 3.73534 15.9996 4.00056 15.9996H14.5868L0.293056 1.70708C0.105415 1.51944 -1.97712e-09 1.26494 0 0.999579C1.97712e-09 0.734215 0.105415 0.47972 0.293056 0.292079C0.480697 0.104439 0.735192 -0.000976561 1.00056 -0.000976562C1.26592 -0.000976564 1.52042 0.104439 1.70806 0.292079L16.0006 14.5858V3.99958C16.0006 3.73436 16.1059 3.48001 16.2934 3.29247C16.481 3.10494 16.7353 2.99958 17.0006 2.99958C17.2658 2.99958 17.5201 3.10494 17.7077 3.29247C17.8952 3.48001 18.0006 3.73436 18.0006 3.99958Z" fill="#8C6BFA"/>
</svg>
