<svg width="30" height="34" viewBox="0 0 30 34" fill="none" xmlns="http://www.w3.org/2000/svg">
<path d="M21.2505 32C21.2505 32.3315 21.1188 32.6495 20.8844 32.8839C20.65 33.1183 20.3321 33.25 20.0005 33.25H10.0005C9.66901 33.25 9.35107 33.1183 9.11665 32.8839C8.88223 32.6495 8.75053 32.3315 8.75053 32C8.75053 31.6685 8.88223 31.3505 9.11665 31.1161C9.35107 30.8817 9.66901 30.75 10.0005 30.75H20.0005C20.3321 30.75 20.65 30.8817 20.8844 31.1161C21.1188 31.3505 21.2505 31.6685 21.2505 32ZM29.6646 27C29.4477 27.3821 29.1328 27.6993 28.7524 27.9191C28.372 28.1388 27.9398 28.253 27.5005 28.25H2.50053C2.06106 28.2494 1.62951 28.133 1.24937 27.9124C0.869236 27.6919 0.553953 27.3751 0.335298 26.9938C0.116643 26.6126 0.00234478 26.1805 0.00392236 25.741C0.00549994 25.3016 0.122898 24.8703 0.344284 24.4906C1.21147 22.9969 2.50053 18.7719 2.50053 13.25C2.50053 9.93479 3.81749 6.75537 6.1617 4.41117C8.5059 2.06696 11.6853 0.75 15.0005 0.75C18.3157 0.75 21.4952 2.06696 23.8394 4.41117C26.1836 6.75537 27.5005 9.93479 27.5005 13.25C27.5005 18.7703 28.7912 22.9969 29.6583 24.4906C29.8819 24.8708 30.0002 25.3036 30.001 25.7447C30.0019 26.1857 29.8852 26.619 29.663 27H29.6646ZM27.5005 25.75C26.2927 23.6766 25.0005 18.8828 25.0005 13.25C25.0005 10.5978 23.947 8.0543 22.0716 6.17893C20.1962 4.30357 17.6527 3.25 15.0005 3.25C12.3484 3.25 9.80483 4.30357 7.92947 6.17893C6.0541 8.0543 5.00053 10.5978 5.00053 13.25C5.00053 18.8844 3.70678 23.6781 2.50053 25.75H27.5005Z" fill="#E9EEFF"/>
</svg>
