<svg width="24" height="24" viewBox="0 0 24 24" fill="none" xmlns="http://www.w3.org/2000/svg">
<path d="M5.99807 9.84375V3.75C5.99807 3.55109 5.91905 3.36032 5.7784 3.21967C5.63775 3.07902 5.44698 3 5.24807 3C5.04916 3 4.85839 3.07902 4.71774 3.21967C4.57709 3.36032 4.49807 3.55109 4.49807 3.75V9.84375C3.85276 10.009 3.28079 10.3843 2.87234 10.9105C2.46389 11.4367 2.24219 12.0839 2.24219 12.75C2.24219 13.4161 2.46389 14.0633 2.87234 14.5895C3.28079 15.1157 3.85276 15.491 4.49807 15.6562V20.25C4.49807 20.4489 4.57709 20.6397 4.71774 20.7803C4.85839 20.921 5.04916 21 5.24807 21C5.44698 21 5.63775 20.921 5.7784 20.7803C5.91905 20.6397 5.99807 20.4489 5.99807 20.25V15.6562C6.64338 15.491 7.21535 15.1157 7.6238 14.5895C8.03225 14.0633 8.25395 13.4161 8.25395 12.75C8.25395 12.0839 8.03225 11.4367 7.6238 10.9105C7.21535 10.3843 6.64338 10.009 5.99807 9.84375ZM5.24807 14.25C4.9514 14.25 4.66139 14.162 4.41471 13.9972C4.16804 13.8324 3.97578 13.5981 3.86225 13.324C3.74872 13.0499 3.71901 12.7483 3.77689 12.4574C3.83477 12.1664 3.97763 11.8991 4.18741 11.6893C4.39719 11.4796 4.66446 11.3367 4.95543 11.2788C5.24641 11.2209 5.54801 11.2506 5.8221 11.3642C6.09618 11.4777 6.33045 11.67 6.49527 11.9166C6.6601 12.1633 6.74807 12.4533 6.74807 12.75C6.74807 13.1478 6.59003 13.5294 6.30873 13.8107C6.02743 14.092 5.64589 14.25 5.24807 14.25ZM12.7481 5.34375V3.75C12.7481 3.55109 12.6691 3.36032 12.5284 3.21967C12.3877 3.07902 12.197 3 11.9981 3C11.7992 3 11.6084 3.07902 11.4677 3.21967C11.3271 3.36032 11.2481 3.55109 11.2481 3.75V5.34375C10.6028 5.50898 10.0308 5.88428 9.62234 6.41048C9.21389 6.93669 8.99219 7.58387 8.99219 8.25C8.99219 8.91613 9.21389 9.56331 9.62234 10.0895C10.0308 10.6157 10.6028 10.991 11.2481 11.1562V20.25C11.2481 20.4489 11.3271 20.6397 11.4677 20.7803C11.6084 20.921 11.7992 21 11.9981 21C12.197 21 12.3877 20.921 12.5284 20.7803C12.6691 20.6397 12.7481 20.4489 12.7481 20.25V11.1562C13.3934 10.991 13.9653 10.6157 14.3738 10.0895C14.7823 9.56331 15.004 8.91613 15.004 8.25C15.004 7.58387 14.7823 6.93669 14.3738 6.41048C13.9653 5.88428 13.3934 5.50898 12.7481 5.34375ZM11.9981 9.75C11.7014 9.75 11.4114 9.66203 11.1647 9.4972C10.918 9.33238 10.7258 9.09811 10.6123 8.82403C10.4987 8.54994 10.469 8.24834 10.5269 7.95736C10.5848 7.66639 10.7276 7.39912 10.9374 7.18934C11.1472 6.97956 11.4145 6.8367 11.7054 6.77882C11.9964 6.72094 12.298 6.75065 12.5721 6.86418C12.8462 6.97771 13.0805 7.16997 13.2453 7.41665C13.4101 7.66332 13.4981 7.95333 13.4981 8.25C13.4981 8.64782 13.34 9.02936 13.0587 9.31066C12.7774 9.59196 12.3959 9.75 11.9981 9.75ZM21.7481 15.75C21.7474 15.0849 21.5262 14.4388 21.1191 13.9129C20.7119 13.387 20.1418 13.011 19.4981 12.8438V3.75C19.4981 3.55109 19.4191 3.36032 19.2784 3.21967C19.1377 3.07902 18.947 3 18.7481 3C18.5492 3 18.3584 3.07902 18.2177 3.21967C18.0771 3.36032 17.9981 3.55109 17.9981 3.75V12.8438C17.3528 13.009 16.7808 13.3843 16.3723 13.9105C15.9639 14.4367 15.7422 15.0839 15.7422 15.75C15.7422 16.4161 15.9639 17.0633 16.3723 17.5895C16.7808 18.1157 17.3528 18.491 17.9981 18.6562V20.25C17.9981 20.4489 18.0771 20.6397 18.2177 20.7803C18.3584 20.921 18.5492 21 18.7481 21C18.947 21 19.1377 20.921 19.2784 20.7803C19.4191 20.6397 19.4981 20.4489 19.4981 20.25V18.6562C20.1418 18.489 20.7119 18.113 21.1191 17.5871C21.5262 17.0612 21.7474 16.4151 21.7481 15.75ZM18.7481 17.25C18.4514 17.25 18.1614 17.162 17.9147 16.9972C17.668 16.8324 17.4758 16.5981 17.3623 16.324C17.2487 16.0499 17.219 15.7483 17.2769 15.4574C17.3348 15.1664 17.4776 14.8991 17.6874 14.6893C17.8972 14.4796 18.1645 14.3367 18.4554 14.2788C18.7464 14.2209 19.048 14.2506 19.3221 14.3642C19.5962 14.4777 19.8305 14.67 19.9953 14.9166C20.1601 15.1633 20.2481 15.4533 20.2481 15.75C20.2481 16.1478 20.09 16.5294 19.8087 16.8107C19.5274 17.092 19.1459 17.25 18.7481 17.25Z" fill="#8C6BFA"/>
</svg>
