<svg width="27" height="27" viewBox="0 0 27 27" fill="none" xmlns="http://www.w3.org/2000/svg">
<path d="M25.7326 7.39501C27.1203 10.2973 27.3837 13.6107 26.472 16.6957C25.5604 19.7808 23.5383 22.4188 20.796 24.1006C18.0537 25.7825 14.7857 26.3889 11.6226 25.8029C8.45946 25.2169 5.62553 23.4799 3.66775 20.9274C1.70996 18.3748 0.767094 15.1874 1.02113 11.9805C1.27516 8.77366 2.70808 5.77454 5.04333 3.56201C7.37859 1.34949 10.4506 0.0804062 13.6666 -0.000295599C16.8825 -0.0809974 20.0143 1.0324 22.4576 3.12501L25.2913 0.290009C25.479 0.102369 25.7335 -0.00304671 25.9988 -0.00304671C26.2642 -0.00304671 26.5187 0.102369 26.7063 0.290009C26.894 0.47765 26.9994 0.732145 26.9994 0.997509C26.9994 1.26287 26.894 1.51737 26.7063 1.70501L14.7063 13.705C14.5187 13.8927 14.2642 13.9981 13.9988 13.9981C13.7335 13.9981 13.479 13.8927 13.2913 13.705C13.1037 13.5174 12.9983 13.2629 12.9983 12.9975C12.9983 12.7321 13.1037 12.4776 13.2913 12.29L16.7563 8.82501C15.8173 8.20395 14.6961 7.918 13.5743 8.01344C12.4525 8.10888 11.3958 8.58014 10.5751 9.35091C9.75447 10.1217 9.21798 11.1469 9.05249 12.2605C8.887 13.3741 9.10219 14.511 9.66324 15.4871C10.2243 16.4632 11.0983 17.2214 12.1439 17.6389C13.1895 18.0564 14.3454 18.1089 15.4244 17.7877C16.5035 17.4666 17.4426 16.7906 18.0897 15.8693C18.7368 14.948 19.0541 13.8353 18.9901 12.7113C18.9827 12.5799 19.0013 12.4484 19.0447 12.3243C19.0881 12.2001 19.1556 12.0858 19.2432 11.9877C19.3308 11.8896 19.4369 11.8097 19.5554 11.7527C19.6739 11.6956 19.8025 11.6624 19.9338 11.655C20.1991 11.6401 20.4593 11.7311 20.6574 11.9081C20.7555 11.9958 20.8354 12.1019 20.8924 12.2204C20.9495 12.3389 20.9827 12.4674 20.9901 12.5988C21.0813 14.1897 20.6268 15.7642 19.702 17.0619C18.7771 18.3596 17.4371 19.3029 15.9034 19.7359C14.3698 20.1689 12.7343 20.0656 11.2673 19.4431C9.80034 18.8207 8.58965 17.7163 7.83536 16.3125C7.08107 14.9088 6.82833 13.2897 7.11892 11.7228C7.40951 10.1559 8.22602 8.73511 9.43351 7.69517C10.641 6.65523 12.1672 6.05843 13.7598 6.0034C15.3525 5.94837 16.9162 6.4384 18.1926 7.39251L21.0363 4.54876C18.9523 2.8185 16.3026 1.91921 13.5959 2.0236C10.8893 2.128 8.31662 3.22871 6.37208 5.11434C4.42754 6.99997 3.24823 9.53755 3.06065 12.2397C2.87307 14.9419 3.69044 17.6181 5.35579 19.7543C7.02114 21.8905 9.41703 23.3361 12.0833 23.8135C14.7495 24.2909 17.4982 23.7663 19.8013 22.3406C22.1043 20.9149 23.7995 18.6886 24.5611 16.0892C25.3227 13.4898 25.0971 10.7007 23.9276 8.25751C23.8132 8.01815 23.7986 7.74316 23.887 7.49304C23.9754 7.24291 24.1595 7.03813 24.3988 6.92376C24.6382 6.80938 24.9132 6.79478 25.1633 6.88316C25.4134 6.97153 25.6182 7.15565 25.7326 7.39501Z" fill="#2E2170"/>
</svg>
