<svg width="29" height="20" viewBox="0 0 29 20" fill="none" xmlns="http://www.w3.org/2000/svg">
<path d="M27.0238 7.06C27.4755 6.96808 27.8817 6.72292 28.1734 6.36598C28.4652 6.00905 28.6248 5.56227 28.625 5.10125V2C28.625 1.46957 28.4143 0.960859 28.0392 0.585786C27.6641 0.210714 27.1554 0 26.625 0H2.625C2.09457 0 1.58586 0.210714 1.21079 0.585786C0.835717 0.960859 0.625004 1.46957 0.625004 2V5.10125C0.625257 5.56227 0.784773 6.00905 1.07656 6.36598C1.36835 6.72292 1.77449 6.96808 2.22625 7.06C2.90176 7.20009 3.50835 7.56871 3.94383 8.10376C4.37931 8.63882 4.61708 9.30762 4.61708 9.9975C4.61708 10.6874 4.37931 11.3562 3.94383 11.8912C3.50835 12.4263 2.90176 12.7949 2.22625 12.935C1.77365 13.0271 1.36686 13.273 1.07498 13.631C0.783093 13.9889 0.624103 14.4369 0.625004 14.8988V18C0.625004 18.5304 0.835717 19.0391 1.21079 19.4142C1.58586 19.7893 2.09457 20 2.625 20H26.625C27.1554 20 27.6641 19.7893 28.0392 19.4142C28.4143 19.0391 28.625 18.5304 28.625 18V14.8988C28.6248 14.4377 28.4652 13.9909 28.1734 13.634C27.8817 13.2771 27.4755 13.0319 27.0238 12.94C26.3482 12.7999 25.7417 12.4313 25.3062 11.8962C24.8707 11.3612 24.6329 10.6924 24.6329 10.0025C24.6329 9.31262 24.8707 8.64382 25.3062 8.10876C25.7417 7.57371 26.3482 7.20509 27.0238 7.065V7.06ZM2.625 14.9C3.75462 14.6699 4.77002 14.0565 5.4993 13.1637C6.22858 12.2708 6.62694 11.1534 6.62694 10.0006C6.62694 8.84781 6.22858 7.7304 5.4993 6.83758C4.77002 5.94476 3.75462 5.33137 2.625 5.10125V2H9.625V18H2.625V14.9ZM26.625 14.9V18H11.625V2H26.625V5.1C25.4954 5.33012 24.48 5.94351 23.7507 6.83633C23.0214 7.72915 22.6231 8.84656 22.6231 9.99938C22.6231 11.1522 23.0214 12.2696 23.7507 13.1624C24.48 14.0552 25.4954 14.6686 26.625 14.8988V14.9Z" fill="#8C6BFA"/>
</svg>
