<svg width="144" height="138" viewBox="0 0 144 138" fill="none" xmlns="http://www.w3.org/2000/svg">
<path d="M113.2 50.28C114.554 50.0035 115.772 49.2679 116.646 48.1974C117.521 47.127 117.999 45.7873 118 44.405V32C118 30.4087 117.368 28.8826 116.243 27.7574C115.117 26.6321 113.591 26 112 26H16C14.4087 26 12.8826 26.6321 11.7574 27.7574C10.6321 28.8826 10 30.4087 10 32V44.405C10.0009 45.7873 10.479 47.127 11.3536 48.1974C12.2282 49.2679 13.4456 50.0035 14.8 50.28C17.9648 50.9226 20.8101 52.6396 22.8539 55.1401C24.8976 57.6405 26.014 60.7706 26.014 64C26.014 67.2294 24.8976 70.3595 22.8539 72.8599C20.8101 75.3604 17.9648 77.0774 14.8 77.72C13.4456 77.9965 12.2282 78.7321 11.3536 79.8026C10.479 80.8731 10.0009 82.2127 10 83.595V96C10 97.5913 10.6321 99.1174 11.7574 100.243C12.8826 101.368 14.4087 102 16 102H112C113.591 102 115.117 101.368 116.243 100.243C117.368 99.1174 118 97.5913 118 96V83.595C117.999 82.2127 117.521 80.8731 116.646 79.8026C115.772 78.7321 114.554 77.9965 113.2 77.72C110.035 77.0774 107.19 75.3604 105.146 72.8599C103.102 70.3595 101.986 67.2294 101.986 64C101.986 60.7706 103.102 57.6405 105.146 55.1401C107.19 52.6396 110.035 50.9226 113.2 50.28ZM14 96V83.595C14.0011 83.1348 14.1608 82.689 14.4523 82.3329C14.7437 81.9768 15.1491 81.732 15.6 81.64C19.669 80.8137 23.3273 78.6062 25.955 75.3913C28.5826 72.1765 30.018 68.1521 30.018 64C30.018 59.8479 28.5826 55.8235 25.955 52.6087C23.3273 49.3938 19.669 47.1863 15.6 46.36C15.1491 46.268 14.7437 46.0232 14.4523 45.6671C14.1608 45.311 14.0011 44.8652 14 44.405V32C14 31.4696 14.2107 30.9609 14.5858 30.5858C14.9609 30.2107 15.4696 30 16 30H46V98H16C15.4696 98 14.9609 97.7893 14.5858 97.4142C14.2107 97.0391 14 96.5304 14 96ZM98 64C98.0076 68.1473 99.4435 72.1654 102.066 75.3782C104.689 78.591 108.338 80.8023 112.4 81.64C112.851 81.732 113.256 81.9768 113.548 82.3329C113.839 82.689 113.999 83.1348 114 83.595V96C114 96.5304 113.789 97.0391 113.414 97.4142C113.039 97.7893 112.53 98 112 98H50V30H112C112.53 30 113.039 30.2107 113.414 30.5858C113.789 30.9609 114 31.4696 114 32V44.405C113.999 44.8652 113.839 45.311 113.548 45.6671C113.256 46.0232 112.851 46.268 112.4 46.36C108.338 47.1977 104.689 49.409 102.066 52.6218C99.4435 55.8346 98.0076 59.8527 98 64Z" fill="#8C6BFA"/>
<rect x="80" y="74" width="64" height="64" rx="24" fill="#12D1DE"/>
<path d="M125.061 100.062L109.061 116.062C108.922 116.201 108.756 116.312 108.574 116.388C108.392 116.464 108.196 116.503 107.999 116.503C107.801 116.503 107.606 116.464 107.423 116.388C107.241 116.312 107.076 116.201 106.936 116.062L99.9362 109.062C99.7967 108.922 99.686 108.756 99.6105 108.574C99.535 108.392 99.4961 108.196 99.4961 107.999C99.4961 107.802 99.535 107.606 99.6105 107.424C99.686 107.242 99.7967 107.076 99.9362 106.937C100.076 106.797 100.241 106.686 100.424 106.611C100.606 106.535 100.801 106.497 100.999 106.497C101.196 106.497 101.391 106.535 101.574 106.611C101.756 106.686 101.922 106.797 102.061 106.937L108 112.875L122.939 97.9391C123.22 97.6573 123.603 97.499 124.001 97.499C124.4 97.499 124.782 97.6573 125.064 97.9391C125.345 98.2209 125.504 98.6031 125.504 99.0016C125.504 99.4001 125.345 99.7823 125.064 100.064L125.061 100.062Z" fill="#8C6BFA"/>
</svg>
