<svg width="48" height="48" viewBox="0 0 48 48" fill="none" xmlns="http://www.w3.org/2000/svg">
<path opacity="0.2" d="M37.5 24C37.4997 25.3832 37.9773 26.724 38.852 27.7955C39.7267 28.867 40.9448 29.6034 42.3 29.88C42.6385 29.9491 42.9428 30.1329 43.1614 30.4004C43.38 30.6679 43.4996 31.0027 43.5 31.3481V36C43.5 36.3978 43.342 36.7794 43.0607 37.0607C42.7794 37.342 42.3978 37.5 42 37.5H18V10.5H42C42.3978 10.5 42.7794 10.658 43.0607 10.9393C43.342 11.2206 43.5 11.6022 43.5 12V16.6519C43.4996 16.9973 43.38 17.3321 43.1614 17.5996C42.9428 17.8671 42.6385 18.0509 42.3 18.12C40.9448 18.3966 39.7267 19.133 38.852 20.2045C37.9773 21.276 37.4997 22.6168 37.5 24Z" fill="#8C6BFA"/>
<path d="M42.5981 19.59C43.2758 19.4521 43.885 19.0844 44.3227 18.549C44.7604 18.0136 44.9996 17.3434 45 16.6519V12C45 11.2044 44.6839 10.4413 44.1213 9.87868C43.5587 9.31607 42.7957 9 42 9H6.00001C5.20436 9 4.44129 9.31607 3.87869 9.87868C3.31608 10.4413 3.00001 11.2044 3.00001 12V16.6519C3.00038 17.3434 3.23966 18.0136 3.67734 18.549C4.11502 19.0844 4.72423 19.4521 5.40188 19.59C6.41514 19.8001 7.32502 20.3531 7.97824 21.1556C8.63147 21.9582 8.98812 22.9614 8.98812 23.9963C8.98812 25.0311 8.63147 26.0343 7.97824 26.8369C7.32502 27.6394 6.41514 28.1924 5.40188 28.4025C4.72297 28.5406 4.11279 28.9095 3.67497 29.4464C3.23714 29.9834 2.99865 30.6553 3.00001 31.3481V36C3.00001 36.7956 3.31608 37.5587 3.87869 38.1213C4.44129 38.6839 5.20436 39 6.00001 39H42C42.7957 39 43.5587 38.6839 44.1213 38.1213C44.6839 37.5587 45 36.7956 45 36V31.3481C44.9996 30.6566 44.7604 29.9864 44.3227 29.451C43.885 28.9156 43.2758 28.5479 42.5981 28.41C41.5849 28.1999 40.675 27.6469 40.0218 26.8444C39.3685 26.0418 39.0119 25.0386 39.0119 24.0038C39.0119 22.9689 39.3685 21.9657 40.0218 21.1631C40.675 20.3606 41.5849 19.8076 42.5981 19.5975V19.59ZM6.00001 31.35C7.69443 31.0048 9.21753 30.0847 10.3115 28.7455C11.4054 27.4063 12.0029 25.7302 12.0029 24.0009C12.0029 22.2717 11.4054 20.5956 10.3115 19.2564C9.21753 17.9171 7.69443 16.997 6.00001 16.6519V12H16.5V36H6.00001V31.35ZM42 31.35V36H19.5V12H42V16.65C40.3056 16.9952 38.7825 17.9153 37.6886 19.2545C36.5946 20.5937 35.9971 22.2698 35.9971 23.9991C35.9971 25.7283 36.5946 27.4044 37.6886 28.7436C38.7825 30.0829 40.3056 31.003 42 31.3481V31.35Z" fill="#8C6BFA"/>
</svg>
