<svg width="19" height="14" viewBox="0 0 19 14" fill="none" xmlns="http://www.w3.org/2000/svg">
<path d="M17.3125 5.46875C17.6653 5.39674 17.9824 5.20508 18.2102 4.92621C18.4379 4.64733 18.5624 4.29835 18.5625 3.93828V2C18.5625 1.5856 18.3979 1.18817 18.1049 0.895146C17.8118 0.60212 17.4144 0.4375 17 0.4375H2C1.5856 0.4375 1.18817 0.60212 0.895146 0.895146C0.60212 1.18817 0.4375 1.5856 0.4375 2V3.93828C0.437607 4.29835 0.562069 4.64733 0.789839 4.92621C1.01761 5.20508 1.3347 5.39674 1.6875 5.46875C2.04072 5.54047 2.35827 5.7321 2.58637 6.01117C2.81446 6.29024 2.93907 6.63958 2.93907 7C2.93907 7.36042 2.81446 7.70976 2.58637 7.98883C2.35827 8.2679 2.04072 8.45953 1.6875 8.53125C1.3347 8.60326 1.01761 8.79491 0.789839 9.07379C0.562069 9.35266 0.437607 9.70165 0.4375 10.0617V12C0.4375 12.4144 0.60212 12.8118 0.895146 13.1049C1.18817 13.3979 1.5856 13.5625 2 13.5625H17C17.4144 13.5625 17.8118 13.3979 18.1049 13.1049C18.3979 12.8118 18.5625 12.4144 18.5625 12V10.0617C18.5624 9.70165 18.4379 9.35266 18.2102 9.07379C17.9824 8.79491 17.6653 8.60326 17.3125 8.53125C16.9593 8.45953 16.6417 8.2679 16.4136 7.98883C16.1855 7.70976 16.0609 7.36042 16.0609 7C16.0609 6.63958 16.1855 6.29024 16.4136 6.01117C16.6417 5.7321 16.9593 5.54047 17.3125 5.46875ZM2.3125 10.3078C3.03287 10.1041 3.66706 9.67084 4.11869 9.0738C4.57032 8.47677 4.8147 7.74861 4.8147 7C4.8147 6.25139 4.57032 5.52323 4.11869 4.9262C3.66706 4.32916 3.03287 3.89588 2.3125 3.69219V2.3125H6.0625V11.6875H2.3125V10.3078ZM16.6875 10.3078V11.6875H7.9375V2.3125H16.6875V3.69219C15.9671 3.89588 15.3329 4.32916 14.8813 4.9262C14.4297 5.52323 14.1853 6.25139 14.1853 7C14.1853 7.74861 14.4297 8.47677 14.8813 9.0738C15.3329 9.67084 15.9671 10.1041 16.6875 10.3078Z" fill="#8C6BFA"/>
</svg>
