<svg width="32" height="32" viewBox="0 0 32 32" fill="none" xmlns="http://www.w3.org/2000/svg">
<path opacity="0.2" d="M30 8.99988L26 12.9999C25.4675 21.3549 18.49 27.9999 10 27.9999C6 27.9999 5 26.4999 5 26.4999C5 26.4999 9 24.9999 11 21.9999C11 21.9999 4.10625 17.9999 5.0975 6.99988C5.0975 6.99988 10.055 11.9999 16 12.9999V10.9999C16 8.24988 18.25 5.96613 21 5.99988C21.9705 6.01115 22.9175 6.29952 23.7296 6.83102C24.5417 7.36252 25.185 8.11501 25.5837 8.99988H30Z" fill="#8C6BFA"/>
<path d="M30.923 8.61753C30.8474 8.43479 30.7192 8.27858 30.5548 8.16867C30.3904 8.05876 30.197 8.00007 29.9993 8.00003H26.1955C25.6638 7.09517 24.9069 6.34332 23.9986 5.81762C23.0902 5.29192 22.0612 5.01026 21.0118 5.00003C20.2301 4.98966 19.4542 5.13583 18.7299 5.42994C18.0056 5.72405 17.3474 6.16014 16.7943 6.71253C16.2242 7.27132 15.7717 7.93853 15.4634 8.67487C15.1552 9.4112 14.9973 10.2018 14.9993 11V11.7613C9.96675 10.4338 5.8505 6.34003 5.80675 6.29628C5.67259 6.16093 5.50255 6.06673 5.31665 6.02479C5.13075 5.98284 4.93673 5.99488 4.75745 6.0595C4.57817 6.12413 4.42108 6.23863 4.30469 6.38953C4.18831 6.54044 4.11746 6.72146 4.1005 6.91128C3.563 12.885 5.29675 16.8825 6.8505 19.1838C7.60847 20.3215 8.53053 21.3409 9.58675 22.2088C7.678 24.4 4.6805 25.5513 4.64925 25.5638C4.50815 25.6166 4.38081 25.7007 4.27675 25.8097C4.17269 25.9186 4.09461 26.0497 4.04833 26.1931C4.00205 26.3365 3.98878 26.4885 4.0095 26.6378C4.03023 26.787 4.08441 26.9297 4.168 27.055C4.2605 27.195 4.63675 27.6863 5.553 28.145C6.688 28.7125 8.18425 29 9.99925 29C18.8343 29 26.2143 22.1975 26.9693 13.445L30.7068 9.70753C30.8466 9.5676 30.9417 9.38935 30.9802 9.19533C31.0187 9.00131 30.9988 8.80023 30.923 8.61753ZM25.298 12.2938C25.1266 12.4656 25.0235 12.694 25.008 12.9363C24.4993 20.8225 17.9093 27 9.99925 27C8.67925 27 7.74925 26.825 7.09675 26.615C8.53675 25.8338 10.5418 24.49 11.8318 22.555C11.9073 22.4417 11.9589 22.3142 11.9834 22.1802C12.008 22.0462 12.0048 21.9087 11.9743 21.7759C11.9437 21.6432 11.8864 21.5181 11.8058 21.4083C11.7252 21.2986 11.623 21.2064 11.5055 21.1375C11.4893 21.1275 9.898 20.17 8.4455 17.9763C6.81675 15.5138 5.99925 12.5475 5.99925 9.13628C7.99925 10.7613 11.6555 13.2838 15.8355 13.9863C15.9787 14.01 16.1254 14.0024 16.2653 13.9637C16.4052 13.9251 16.535 13.8565 16.6458 13.7627C16.7565 13.6688 16.8455 13.552 16.9065 13.4203C16.9676 13.2886 16.9992 13.1452 16.9993 13V11C16.9981 10.4666 17.1037 9.93831 17.3098 9.44629C17.5159 8.95427 17.8183 8.50843 18.1993 8.13503C18.5642 7.76886 18.999 7.47972 19.4779 7.28475C19.9567 7.08978 20.4698 6.99296 20.9868 7.00003C22.5693 7.02003 24.048 7.98503 24.6668 9.40128C24.7448 9.57933 24.873 9.7308 25.0357 9.83714C25.1984 9.94348 25.3886 10.0001 25.583 10H27.583L25.298 12.2938Z" fill="#8C6BFA"/>
</svg>
