<svg width="33" height="32" viewBox="0 0 33 32" fill="none" xmlns="http://www.w3.org/2000/svg">
<path opacity="0.2" d="M28.5 16.0006C28.5018 17.6835 28.1487 19.3479 27.4638 20.8851C26.7789 22.4223 25.7775 23.7978 24.525 24.9219C23.772 23.4407 22.6237 22.197 21.2072 21.3283C19.7908 20.4597 18.1616 20.0002 16.5 20.0006C17.4889 20.0006 18.4556 19.7074 19.2779 19.1579C20.1001 18.6085 20.741 17.8276 21.1194 16.914C21.4978 16.0004 21.5969 14.9951 21.4039 14.0251C21.211 13.0552 20.7348 12.1643 20.0355 11.4651C19.3363 10.7658 18.4454 10.2896 17.4755 10.0967C16.5055 9.90375 15.5002 10.0028 14.5866 10.3812C13.673 10.7596 12.8921 11.4005 12.3427 12.2227C11.7932 13.045 11.5 14.0117 11.5 15.0006C11.5 16.3267 12.0268 17.5985 12.9645 18.5361C13.9022 19.4738 15.1739 20.0006 16.5 20.0006C14.8384 20.0002 13.2092 20.4597 11.7928 21.3283C10.3763 22.197 9.22801 23.4407 8.475 24.9219C6.98782 23.5842 5.85862 21.8959 5.19008 20.0107C4.52153 18.1254 4.33487 16.103 4.64705 14.1272C4.95922 12.1514 5.76035 10.285 6.97756 8.69774C8.19478 7.11044 9.78947 5.8526 11.6166 5.03859C13.4438 4.22458 15.4454 3.88022 17.4396 4.03684C19.4337 4.19346 21.3571 4.84609 23.0348 5.93536C24.7124 7.02464 26.0912 8.51602 27.0457 10.2739C28.0002 12.0317 28.5001 14.0003 28.5 16.0006Z" fill="#8C6BFA"/>
<path d="M16.5 3C13.9288 3 11.4154 3.76244 9.27759 5.1909C7.13975 6.61935 5.47351 8.64968 4.48957 11.0251C3.50563 13.4006 3.24819 16.0144 3.7498 18.5362C4.25141 21.0579 5.48953 23.3743 7.30762 25.1924C9.1257 27.0105 11.4421 28.2486 13.9638 28.7502C16.4856 29.2518 19.0995 28.9944 21.4749 28.0104C23.8503 27.0265 25.8807 25.3603 27.3091 23.2224C28.7376 21.0846 29.5 18.5712 29.5 16C29.4964 12.5533 28.1256 9.24882 25.6884 6.81163C23.2512 4.37445 19.9467 3.00364 16.5 3ZM9.76001 24.6875C10.4834 23.5561 11.48 22.625 12.6579 21.9801C13.8358 21.3351 15.1571 20.9971 16.5 20.9971C17.8429 20.9971 19.1642 21.3351 20.3421 21.9801C21.52 22.625 22.5166 23.5561 23.24 24.6875C21.3129 26.1862 18.9413 26.9999 16.5 26.9999C14.0587 26.9999 11.6871 26.1862 9.76001 24.6875ZM12.5 15C12.5 14.2089 12.7346 13.4355 13.1741 12.7777C13.6137 12.1199 14.2384 11.6072 14.9693 11.3045C15.7002 11.0017 16.5044 10.9225 17.2804 11.0769C18.0563 11.2312 18.769 11.6122 19.3284 12.1716C19.8878 12.731 20.2688 13.4437 20.4231 14.2196C20.5775 14.9956 20.4983 15.7998 20.1955 16.5307C19.8928 17.2616 19.3801 17.8864 18.7223 18.3259C18.0645 18.7654 17.2911 19 16.5 19C15.4391 19 14.4217 18.5786 13.6716 17.8284C12.9214 17.0783 12.5 16.0609 12.5 15ZM24.72 23.3013C23.6047 21.6851 22.0365 20.4348 20.2125 19.7075C21.1923 18.9358 21.9072 17.878 22.2579 16.6811C22.6086 15.4843 22.5776 14.2079 22.1693 13.0294C21.7609 11.851 20.9955 10.8291 19.9794 10.1059C18.9634 9.38262 17.7472 8.99397 16.5 8.99397C15.2528 8.99397 14.0366 9.38262 13.0206 10.1059C12.0045 10.8291 11.2391 11.851 10.8307 13.0294C10.4224 14.2079 10.3914 15.4843 10.7421 16.6811C11.0928 17.878 11.8077 18.9358 12.7875 19.7075C10.9635 20.4348 9.39529 21.6851 8.28001 23.3013C6.87072 21.7165 5.9496 19.7581 5.62756 17.6619C5.30553 15.5657 5.59631 13.4211 6.4649 11.4864C7.33349 9.55163 8.74285 7.90922 10.5233 6.75692C12.3037 5.60462 14.3792 4.99156 16.5 4.99156C18.6208 4.99156 20.6963 5.60462 22.4768 6.75692C24.2572 7.90922 25.6665 9.55163 26.5351 11.4864C27.4037 13.4211 27.6945 15.5657 27.3724 17.6619C27.0504 19.7581 26.1293 21.7165 24.72 23.3013Z" fill="#8C6BFA"/>
</svg>
