<svg width="18" height="18" viewBox="0 0 18 18" fill="none" xmlns="http://www.w3.org/2000/svg">
<path d="M12.9042 9.59343L17.1014 7.76906C17.3779 7.64646 17.6109 7.44314 17.7697 7.18578C17.9286 6.92842 18.006 6.62904 17.9917 6.32693C17.9774 6.02482 17.8721 5.73409 17.6896 5.49288C17.5072 5.25167 17.2561 5.07126 16.9692 4.97531L1.96173 0.074994C1.69927 -0.00912889 1.4187 -0.0193111 1.15083 0.0455651C0.882955 0.110441 0.638137 0.247868 0.443246 0.442758C0.248356 0.637648 0.11093 0.882467 0.0460534 1.15034C-0.0188228 1.41821 -0.00864061 1.69878 0.0754822 1.96124L4.97579 16.9687C5.06827 17.2583 5.24742 17.5125 5.48902 17.6969C5.73063 17.8813 6.02305 17.9871 6.32673 18H6.39986C6.69121 18.0011 6.97645 17.9165 7.22001 17.7566C7.46358 17.5967 7.6547 17.3687 7.76955 17.1009L9.59392 12.9037L14.2505 17.5603C14.3898 17.6996 14.5551 17.8102 14.7372 17.8856C14.9192 17.961 15.1143 17.9998 15.3113 17.9998C15.5083 17.9998 15.7034 17.961 15.8854 17.8856C16.0674 17.8102 16.2328 17.6996 16.372 17.5603L17.5608 16.3716C17.7001 16.2323 17.8106 16.0669 17.886 15.8849C17.9614 15.7029 18.0003 15.5078 18.0003 15.3108C18.0003 15.1138 17.9614 14.9187 17.886 14.7367C17.8106 14.5547 17.7001 14.3893 17.5608 14.25L12.9042 9.59343ZM15.3108 16.5L10.6542 11.8434C10.4813 11.6703 10.2687 11.5421 10.0349 11.47C9.80114 11.3979 9.55325 11.3841 9.31289 11.4298C9.07253 11.4754 8.84698 11.5792 8.65592 11.732C8.46486 11.8849 8.31408 12.0821 8.21673 12.3066L6.39611 16.4925L1.50048 1.49999L16.4883 6.39468L12.3033 8.21437C12.0788 8.31172 11.8816 8.4625 11.7288 8.65356C11.5759 8.84462 11.4722 9.07016 11.4265 9.31053C11.3808 9.55089 11.3946 9.79877 11.4668 10.0326C11.5389 10.2664 11.6671 10.479 11.8402 10.6519L16.5005 15.3103L15.3108 16.5Z" fill="#2E2170"/>
</svg>
