<svg width="27" height="27" viewBox="0 0 27 27" fill="none" xmlns="http://www.w3.org/2000/svg">
<path d="M25.7345 7.39452C27.1222 10.2968 27.3856 13.6102 26.474 16.6952C25.5623 19.7803 23.5403 22.4183 20.798 24.1001C18.0557 25.782 14.7876 26.3884 11.6245 25.8024C8.46141 25.2164 5.62749 23.4795 3.6697 20.9269C1.71191 18.3743 0.769047 15.187 1.02308 11.9801C1.27711 8.77317 2.71003 5.77405 5.04529 3.56152C7.38054 1.349 10.4526 0.0799179 13.6685 -0.00078388C16.8844 -0.0814857 20.0163 1.03191 22.4595 3.12452L25.2933 0.289521C25.4809 0.10188 25.7354 -0.00353499 26.0008 -0.00353499C26.2662 -0.00353499 26.5207 0.10188 26.7083 0.289521C26.8959 0.477162 27.0014 0.731657 27.0014 0.997021C27.0014 1.26238 26.8959 1.51688 26.7083 1.70452L14.7083 13.7045C14.5207 13.8922 14.2662 13.9976 14.0008 13.9976C13.7354 13.9976 13.4809 13.8922 13.2933 13.7045C13.1057 13.5169 13.0002 13.2624 13.0002 12.997C13.0002 12.7317 13.1057 12.4772 13.2933 12.2895L16.7583 8.82452C15.8192 8.20346 14.6981 7.91751 13.5763 8.01295C12.4545 8.1084 11.3977 8.57965 10.5771 9.35042C9.75642 10.1212 9.21993 11.1464 9.05444 12.26C8.88895 13.3736 9.10415 14.5105 9.66519 15.4866C10.2262 16.4627 11.1003 17.2209 12.1459 17.6384C13.1914 18.0559 14.3473 18.1084 15.4264 17.7872C16.5055 17.4661 17.4446 16.7901 18.0917 15.8688C18.7388 14.9475 19.056 13.8348 18.992 12.7108C18.9847 12.5794 19.0032 12.448 19.0466 12.3238C19.0901 12.1997 19.1575 12.0853 19.2452 11.9872C19.3328 11.8891 19.4389 11.8092 19.5574 11.7522C19.6759 11.6951 19.8045 11.6619 19.9358 11.6545C20.201 11.6396 20.4613 11.7307 20.6594 11.9076C20.7575 11.9953 20.8373 12.1014 20.8944 12.2199C20.9515 12.3384 20.9847 12.4669 20.992 12.5983C21.0832 14.1892 20.6288 15.7637 19.7039 17.0614C18.779 18.3591 17.439 19.3024 15.9054 19.7354C14.3717 20.1684 12.7363 20.0651 11.2693 19.4426C9.8023 18.8202 8.59161 17.7158 7.83732 16.312C7.08302 14.9083 6.83029 13.2892 7.12087 11.7223C7.41146 10.1554 8.22797 8.73462 9.43547 7.69468C10.643 6.65474 12.1691 6.05794 13.7618 6.00291C15.3544 5.94788 16.9182 6.43791 18.1945 7.39202L21.0383 4.54827C18.9543 2.81802 16.3045 1.91872 13.5979 2.02312C10.8912 2.12751 8.31857 3.22822 6.37403 5.11385C4.42949 6.99948 3.25018 9.53707 3.0626 12.2392C2.87502 14.9414 3.6924 17.6176 5.35774 19.7538C7.02309 21.89 9.41898 23.3356 12.0852 23.813C14.7515 24.2904 17.5001 23.7658 19.8032 22.3401C22.1063 20.9144 23.8014 18.6881 24.563 16.0887C25.3247 13.4893 25.099 10.7002 23.9295 8.25702C23.8152 8.01766 23.8006 7.74267 23.8889 7.49255C23.9773 7.24242 24.1614 7.03765 24.4008 6.92327C24.6402 6.8089 24.9151 6.79429 25.1653 6.88267C25.4154 6.97104 25.6202 7.15516 25.7345 7.39452Z" fill="#8C6BFA"/>
</svg>
