<svg width="23" height="31" viewBox="0 0 23 31" fill="none" xmlns="http://www.w3.org/2000/svg">
<path d="M22.0215 11.5786C22.0226 9.72481 21.5552 7.90085 20.6627 6.27608C19.7702 4.65132 18.4816 3.27846 16.9165 2.28501C15.3515 1.29157 13.5607 0.70976 11.7106 0.59363C9.86049 0.4775 8.01104 0.830814 6.33403 1.62076C4.65701 2.4107 3.20684 3.61165 2.11819 5.11205C1.02953 6.61246 0.337725 8.36366 0.107013 10.203C-0.1237 12.0423 0.114169 13.9101 0.798525 15.6329C1.48288 17.3557 2.59153 18.8776 4.02149 20.0573V29.5786C4.02136 29.7491 4.06486 29.9168 4.14784 30.0658C4.23082 30.2148 4.35053 30.3401 4.49559 30.4298C4.64064 30.5195 4.80623 30.5706 4.9766 30.5783C5.14697 30.5859 5.31647 30.5499 5.46899 30.4736L11.0215 27.7036L16.5752 30.4798C16.7145 30.5464 16.8671 30.5802 17.0215 30.5786C17.2867 30.5786 17.5411 30.4732 17.7286 30.2857C17.9161 30.0981 18.0215 29.8438 18.0215 29.5786V20.0573C19.2726 19.0268 20.2802 17.7322 20.9718 16.2662C21.6633 14.8003 22.0218 13.1994 22.0215 11.5786ZM2.02149 11.5786C2.02149 9.79852 2.54933 8.05846 3.53826 6.57842C4.52719 5.09838 5.9328 3.94483 7.57733 3.26364C9.22187 2.58245 11.0315 2.40422 12.7773 2.75149C14.5231 3.09875 16.1268 3.95592 17.3854 5.21459C18.6441 6.47327 19.5013 8.07691 19.8486 9.82274C20.1958 11.5686 20.0176 13.3782 19.3364 15.0227C18.6552 16.6672 17.5017 18.0728 16.0216 19.0618C14.5416 20.0507 12.8015 20.5786 11.0215 20.5786C8.63535 20.5759 6.3477 19.6268 4.66045 17.9396C2.97319 16.2523 2.02413 13.9647 2.02149 11.5786ZM16.0215 27.9611L11.4677 25.6848C11.3288 25.6153 11.1756 25.5791 11.0202 25.5791C10.8649 25.5791 10.7117 25.6153 10.5727 25.6848L6.02149 27.9611V21.3748C7.56944 22.166 9.28306 22.5785 11.0215 22.5785C12.7599 22.5785 14.4735 22.166 16.0215 21.3748V27.9611ZM11.0215 18.5786C12.406 18.5786 13.7593 18.168 14.9105 17.3988C16.0616 16.6297 16.9588 15.5364 17.4886 14.2573C18.0185 12.9783 18.1571 11.5708 17.887 10.2129C17.6169 8.85505 16.9502 7.60777 15.9712 6.62881C14.9923 5.64984 13.745 4.98315 12.3871 4.71306C11.0293 4.44296 9.62178 4.58158 8.3427 5.1114C7.06362 5.64121 5.97037 6.53842 5.2012 7.68956C4.43203 8.84071 4.02149 10.1941 4.02149 11.5786C4.02347 13.4345 4.76161 15.2138 6.07393 16.5261C7.38626 17.8384 9.16558 18.5766 11.0215 18.5786ZM11.0215 6.57855C12.0104 6.57855 12.9771 6.8718 13.7993 7.42121C14.6216 7.97061 15.2624 8.75151 15.6409 9.66514C16.0193 10.5788 16.1183 11.5841 15.9254 12.554C15.7325 13.5239 15.2563 14.4148 14.557 15.1141C13.8578 15.8133 12.9668 16.2896 11.9969 16.4825C11.027 16.6754 10.0217 16.5764 9.10807 16.198C8.19444 15.8195 7.41355 15.1786 6.86414 14.3564C6.31473 13.5342 6.02149 12.5675 6.02149 11.5786C6.02149 10.2525 6.54827 8.9807 7.48595 8.04302C8.42363 7.10534 9.6954 6.57855 11.0215 6.57855Z" fill="#E9EEFF"/>
</svg>
