<svg width="34" height="34" viewBox="0 0 34 34" fill="none" xmlns="http://www.w3.org/2000/svg">
<path d="M26.309 19.6312L21.309 17.1312C21.1122 17.0332 20.893 16.9888 20.6735 17.0025C20.4541 17.0162 20.2421 17.0876 20.059 17.2094L17.7637 18.7406C16.71 18.1614 15.8429 17.2943 15.2637 16.2406L16.795 13.9453C16.9168 13.7622 16.9881 13.5503 17.0019 13.3308C17.0156 13.1113 16.9712 12.8921 16.8731 12.6953L14.3731 7.69531C14.2695 7.48605 14.1093 7.30999 13.9107 7.1871C13.7122 7.06421 13.4832 6.99939 13.2496 7C11.592 7 10.0023 7.65848 8.83022 8.83058C7.65812 10.0027 6.99964 11.5924 6.99964 13.25C7.00378 16.8955 8.45376 20.3904 11.0315 22.9682C13.6092 25.5459 17.1042 26.9959 20.7496 27C21.5704 27 22.3831 26.8383 23.1414 26.5242C23.8997 26.2102 24.5887 25.7498 25.1691 25.1694C25.7494 24.5891 26.2098 23.9001 26.5239 23.1418C26.838 22.3835 26.9996 21.5708 26.9996 20.75C26.9998 20.5178 26.9353 20.2901 26.8133 20.0925C26.6913 19.8949 26.5167 19.7352 26.309 19.6312ZM20.7496 24.5C17.767 24.4967 14.9074 23.3104 12.7983 21.2013C10.6893 19.0922 9.50295 16.2327 9.49964 13.25C9.4994 12.383 9.79958 11.5427 10.3491 10.8721C10.8986 10.2015 11.6636 9.74202 12.5137 9.57188L14.3075 13.1656L12.7809 15.4375C12.6668 15.6086 12.5967 15.8052 12.5768 16.0099C12.5569 16.2146 12.5878 16.4211 12.6668 16.6109C13.5612 18.7365 15.2522 20.4275 17.3778 21.3219C17.5682 21.4044 17.7762 21.4381 17.983 21.4201C18.1898 21.4021 18.3888 21.3329 18.5621 21.2188L20.8465 19.6969L24.4403 21.4906C24.2687 22.342 23.807 23.1075 23.1339 23.6563C22.4609 24.2052 21.6181 24.5034 20.7496 24.5ZM16.9996 0.75C14.1941 0.749388 11.4362 1.47514 8.99441 2.85661C6.55259 4.23808 4.51003 6.22821 3.06553 8.63328C1.62104 11.0384 0.823831 13.7764 0.751497 16.581C0.679163 19.3856 1.33417 22.1612 2.65277 24.6375L0.879328 29.9578C0.732429 30.3983 0.711111 30.871 0.817762 31.3229C0.924414 31.7749 1.15482 32.1881 1.48316 32.5165C1.8115 32.8448 2.22479 33.0752 2.67671 33.1819C3.12864 33.2885 3.60134 33.2672 4.04183 33.1203L9.36214 31.3469C11.5415 32.506 13.9562 33.1534 16.4231 33.24C18.89 33.3266 21.3442 32.85 23.5994 31.8465C25.8546 30.8429 27.8516 29.3388 29.4387 27.4483C31.0258 25.5577 32.1614 23.3304 32.7592 20.9355C33.357 18.5406 33.4014 16.0409 32.8889 13.6263C32.3764 11.2117 31.3206 8.94553 29.8016 6.99987C28.2825 5.05421 26.3402 3.48019 24.122 2.39727C21.9038 1.31436 19.4681 0.751013 16.9996 0.75ZM16.9996 30.75C14.5824 30.7516 12.2076 30.1151 10.1153 28.9047C9.96207 28.8158 9.79175 28.7606 9.61558 28.7425C9.43941 28.7245 9.26142 28.7441 9.09339 28.8L3.24964 30.75L5.19808 24.9062C5.25424 24.7383 5.27409 24.5604 5.25632 24.3842C5.23854 24.2081 5.18354 24.0377 5.09495 23.8844C3.57928 21.2639 2.97075 18.2165 3.36375 15.2149C3.75675 12.2133 5.12932 9.42534 7.26853 7.28343C9.40774 5.14151 12.194 3.76542 15.1951 3.36863C18.1962 2.97184 21.2444 3.57652 23.8667 5.08888C26.4891 6.60124 28.5391 8.93673 29.6986 11.733C30.8582 14.5294 31.0626 17.6302 30.28 20.5545C29.4974 23.4788 27.7717 26.0632 25.3705 27.9066C22.9693 29.75 20.0269 30.7495 16.9996 30.75Z" fill="#E9EEFF"/>
</svg>
